<?xml version="1.0" encoding="utf-8"?>
<!-- Generator: Adobe Illustrator 16.0.0, SVG Export Plug-In . SVG Version: 6.00 Build 0)  -->
<!DOCTYPE svg PUBLIC "-//W3C//DTD SVG 1.1//EN" "http://www.w3.org/Graphics/SVG/1.1/DTD/svg11.dtd">
<svg version="1.1" id="Capa_1" xmlns="http://www.w3.org/2000/svg" xmlns:xlink="http://www.w3.org/1999/xlink" x="0px" y="0px"
	 width="515.254px" height="346.843px" viewBox="0 0 515.254 346.843" enable-background="new 0 0 515.254 346.843"
	 xml:space="preserve">
<circle fill="#F2F2F2" cx="77.343" cy="145.31" r="37.493"/>
<circle fill="#F2F2F2" cx="436.453" cy="144.944" r="37.493"/>
<circle fill="#F2F2F2" cx="256.145" cy="90.67" r="52.986"/>
<g>
	<polygon fill="#CBB292" points="0,226.828 0,272.167 0,346.843 154.687,346.843 154.687,272.167 154.687,226.828 	"/>
	<g>
		<rect x="5.334" y="226.828" fill="#90BAE1" width="26.669" height="96.012"/>
		<path fill="#ECF0F1" d="M26.669,232.162v85.345H10.668v-85.345H26.669 M32.003,226.828H5.334v96.012h26.669V226.828
			L32.003,226.828z"/>
	</g>
	<g>
		<rect x="90.678" y="226.828" fill="#90BAE1" width="56.008" height="96.012"/>
		<path fill="#ECF0F1" d="M141.352,232.162v85.345H96.012v-85.345H141.352 M146.686,226.828H90.678v96.012h56.008V226.828
			L146.686,226.828z"/>
	</g>
	<rect x="37.337" y="226.828" fill="#ECF0F1" width="42.673" height="120.016"/>
	<rect x="42.671" y="288.169" fill="#90BAE1" width="32.004" height="53.34"/>
	<g>
		<path fill="#FFFFFF" d="M106.68,277.501c0.683,0,1.366-0.262,1.885-0.782l10.668-10.668c1.042-1.042,1.042-2.729,0-3.771
			c-1.043-1.043-2.729-1.043-3.771,0l-10.668,10.668c-1.042,1.042-1.042,2.728,0,3.771
			C105.315,277.24,105.997,277.501,106.68,277.501z"/>
		<path fill="#FFFFFF" d="M106.68,290.836c0.683,0,1.366-0.262,1.885-0.782l5.334-5.334c1.043-1.042,1.043-2.729,0-3.771
			c-1.043-1.043-2.728-1.043-3.771,0l-5.334,5.334c-1.042,1.042-1.042,2.729,0,3.771
			C105.315,290.575,105.997,290.836,106.68,290.836z"/>
		<path fill="#FFFFFF" d="M115.455,275.607c-0.483,0.505-0.774,1.172-0.774,1.895c0,0.692,0.291,1.387,0.774,1.893
			c0.504,0.48,1.199,0.773,1.893,0.773s1.387-0.293,1.894-0.773c0.48-0.506,0.773-1.2,0.773-1.893c0-0.693-0.293-1.39-0.773-1.895
			C118.228,274.621,116.441,274.621,115.455,275.607z"/>
		<path fill="#FFFFFF" d="M120.797,274.052c0.52,0.521,1.203,0.782,1.885,0.782s1.365-0.262,1.886-0.782l8.001-8.001
			c1.042-1.042,1.042-2.729,0-3.771c-1.043-1.043-2.729-1.043-3.771,0l-8.001,8.001C119.754,271.324,119.754,273.01,120.797,274.052
			z"/>
		<path fill="#FFFFFF" d="M128.798,275.616l-24.003,24.003c-1.042,1.042-1.042,2.728,0,3.771c0.521,0.52,1.203,0.781,1.886,0.781
			c0.683,0,1.366-0.262,1.885-0.781l24.003-24.003c1.042-1.043,1.042-2.729,0-3.771C131.525,274.573,129.84,274.573,128.798,275.616
			z"/>
		<path fill="#FFFFFF" d="M137.911,270.273c-0.987-0.986-2.774-0.986-3.788,0c-0.483,0.505-0.773,1.171-0.773,1.895
			c0,0.692,0.29,1.387,0.773,1.893c0.504,0.48,1.201,0.774,1.894,0.774c0.72,0,1.387-0.294,1.894-0.774
			c0.48-0.506,0.773-1.2,0.773-1.893C138.685,271.444,138.391,270.778,137.911,270.273z"/>
	</g>
	<rect y="330.841" fill="#7F6E5D" width="37.337" height="16.002"/>
	<rect x="80.011" y="330.841" fill="#7F6E5D" width="74.676" height="16.002"/>
	<rect x="10.668" y="330.841" fill="#5E5146" width="5.334" height="16.002"/>
	<rect x="21.336" y="330.841" fill="#5E5146" width="5.333" height="16.002"/>
	<rect x="90.678" y="330.841" fill="#5E5146" width="5.334" height="16.002"/>
	<rect x="101.346" y="330.841" fill="#5E5146" width="5.334" height="16.002"/>
	<rect x="112.014" y="330.841" fill="#5E5146" width="5.334" height="16.002"/>
	<rect x="122.682" y="330.841" fill="#5E5146" width="5.335" height="16.002"/>
	<rect x="133.351" y="330.841" fill="#5E5146" width="5.334" height="16.002"/>
	<rect x="144.019" y="330.841" fill="#5E5146" width="5.334" height="16.002"/>
	<path fill="#90BAE1" d="M58.674,245.497c-6.342,0-11.936-3.168-15.309-8.001h-0.694v45.34h32.004v-45.34h-0.693
		C70.609,242.329,65.017,245.497,58.674,245.497z"/>
	<path fill="#E64C3C" d="M45.339,192.157h-7.937h-0.065v0.002c-17.33,0.03-32.433,11.658-37.061,28.366
		c-0.568,2.052,0.224,0.969,0.731,0.969h36.33h2.668h37.337v-29.337H45.339z"/>
	<path fill="#F3D55B" d="M120.015,221.494h33.725c0.475,0,1.07,0.459,0.686-0.909l-0.017-0.062
		c-4.317-15.861-18.191-27.104-34.394-28.252v-0.114h-2.731h-7.937H77.343v29.337h37.338H120.015z"/>
	<path fill="#F3D55B" d="M77.343,221.494H40.005l0,0c3.088-16.988,17.885-29.337,35.151-29.337h2.186V221.494z"/>
	<path fill="#E64C3C" d="M114.681,221.494H77.343v-29.337h2.187C96.796,192.157,111.593,204.505,114.681,221.494L114.681,221.494z"
		/>
	<path fill="#C03A2B" d="M21.336,245.497h-2.667C8.358,245.497,0,237.138,0,226.828v-4.907c0-0.234,0.192-0.427,0.427-0.427h39.579
		v5.334C40.005,237.138,31.646,245.497,21.336,245.497z"/>
	<path fill="#DDC357" d="M58.674,245.497L58.674,245.497c-10.311,0-18.669-8.358-18.669-18.669v-5.334h37.337v5.334
		C77.343,237.138,68.985,245.497,58.674,245.497z"/>
	<path fill="#C03A2B" d="M96.012,245.497L96.012,245.497c-10.311,0-18.669-8.358-18.669-18.669v-5.334h37.338v5.334
		C114.681,237.138,106.323,245.497,96.012,245.497z"/>
	<path fill="#DDC357" d="M136.017,245.497h-2.667c-10.311,0-18.669-8.358-18.669-18.669v-5.334h39.579
		c0.234,0,0.427,0.192,0.427,0.427v4.907C154.687,237.138,146.328,245.497,136.017,245.497z"/>
</g>
<g>
	<rect x="362.831" y="207.559" fill="#B0D3F0" width="147.168" height="110.376"/>
	<rect x="357.575" y="199.675" fill="#556080" width="157.68" height="10.512"/>
	<rect x="357.575" y="210.187" fill="#556080" width="5.256" height="107.748"/>
	<rect x="509.999" y="210.187" fill="#556080" width="5.256" height="107.748"/>
	<rect x="368.086" y="191.791" fill="#444E66" width="136.656" height="7.885"/>
	<g>
		<rect x="360.203" y="320.563" fill="#D25627" width="47.304" height="23.651"/>
		<path fill="#D25627" d="M410.134,346.843h-52.56v-28.908h52.56V346.843z M362.831,341.586h42.048v-18.396h-42.048V341.586z"/>
	</g>
	<g>
		<rect x="465.322" y="320.563" fill="#D25627" width="47.306" height="23.651"/>
		<path fill="#D25627" d="M515.254,346.843h-52.56v-28.908h52.56V346.843z M467.951,341.586h42.048v-18.396h-42.048V341.586z"/>
	</g>
	<path fill="#802D40" d="M375.971,333.703h-2.629c-1.453,0-2.629-1.174-2.629-2.627c0-1.454,1.176-2.629,2.629-2.629h2.629
		c1.453,0,2.627,1.175,2.627,2.629C378.598,332.529,377.424,333.703,375.971,333.703z"/>
	<path fill="#802D40" d="M365.458,333.703h-2.628c-1.453,0-2.628-1.174-2.628-2.627c0-1.454,1.175-2.629,2.628-2.629h2.628
		c1.453,0,2.628,1.175,2.628,2.629C368.086,332.529,366.912,333.703,365.458,333.703z"/>
	<path fill="#802D40" d="M383.855,341.586h-2.628c-1.454,0-2.629-1.174-2.629-2.628c0-1.453,1.175-2.627,2.629-2.627h2.628
		c1.453,0,2.627,1.174,2.627,2.627C386.482,340.413,385.308,341.586,383.855,341.586z"/>
	<path fill="#802D40" d="M362.831,341.586h-2.628c-1.454,0-2.628-1.174-2.628-2.628c0-1.453,1.174-2.627,2.628-2.627h2.628
		c1.453,0,2.628,1.174,2.628,2.627C365.458,340.413,364.284,341.586,362.831,341.586z"/>
	<path fill="#802D40" d="M373.342,341.586h-2.629c-1.452,0-2.627-1.174-2.627-2.628c0-1.453,1.175-2.627,2.627-2.627h2.629
		c1.454,0,2.629,1.174,2.629,2.627C375.971,340.413,374.796,341.586,373.342,341.586z"/>
	<path fill="#802D40" d="M396.995,333.703h-2.628c-1.454,0-2.628-1.174-2.628-2.627c0-1.454,1.174-2.629,2.628-2.629h2.628
		c1.453,0,2.629,1.175,2.629,2.629C399.624,332.529,398.448,333.703,396.995,333.703z"/>
	<path fill="#802D40" d="M407.506,333.703h-2.628c-1.453,0-2.628-1.174-2.628-2.627c0-1.454,1.175-2.629,2.628-2.629h2.628
		c1.454,0,2.628,1.175,2.628,2.629C410.134,332.529,408.96,333.703,407.506,333.703z"/>
	<path fill="#802D40" d="M386.482,333.703h-2.627c-1.453,0-2.628-1.174-2.628-2.627c0-1.454,1.175-2.629,2.628-2.629h2.627
		c1.454,0,2.629,1.175,2.629,2.629C389.111,332.529,387.936,333.703,386.482,333.703z"/>
	<path fill="#802D40" d="M404.878,341.586h-2.628c-1.453,0-2.627-1.174-2.627-2.628c0-1.453,1.174-2.627,2.627-2.627h2.628
		c1.453,0,2.628,1.174,2.628,2.627C407.506,340.413,406.332,341.586,404.878,341.586z"/>
	<path fill="#802D40" d="M394.367,341.586h-2.628c-1.454,0-2.628-1.174-2.628-2.628c0-1.453,1.174-2.627,2.628-2.627h2.628
		c1.454,0,2.628,1.174,2.628,2.627C396.995,340.413,395.821,341.586,394.367,341.586z"/>
	<path fill="#802D40" d="M381.227,325.818h-2.629c-1.453,0-2.627-1.174-2.627-2.627s1.174-2.628,2.627-2.628h2.629
		c1.453,0,2.628,1.175,2.628,2.628S382.68,325.818,381.227,325.818z"/>
	<path fill="#802D40" d="M370.713,325.818h-2.627c-1.453,0-2.628-1.174-2.628-2.627s1.175-2.628,2.628-2.628h2.627
		c1.454,0,2.629,1.175,2.629,2.628S372.167,325.818,370.713,325.818z"/>
	<path fill="#802D40" d="M402.25,325.818h-2.627c-1.454,0-2.629-1.174-2.629-2.627s1.175-2.628,2.629-2.628h2.627
		c1.453,0,2.628,1.175,2.628,2.628S403.704,325.818,402.25,325.818z"/>
	<path fill="#802D40" d="M391.739,325.818h-2.628c-1.454,0-2.629-1.174-2.629-2.627s1.175-2.628,2.629-2.628h2.628
		c1.453,0,2.628,1.175,2.628,2.628S393.192,325.818,391.739,325.818z"/>
	<path fill="#802D40" d="M481.09,333.703h-2.627c-1.454,0-2.629-1.174-2.629-2.627c0-1.454,1.175-2.629,2.629-2.629h2.627
		c1.454,0,2.629,1.175,2.629,2.629C483.719,332.529,482.544,333.703,481.09,333.703z"/>
	<path fill="#802D40" d="M470.579,333.703h-2.628c-1.453,0-2.629-1.174-2.629-2.627c0-1.454,1.176-2.629,2.629-2.629h2.628
		c1.453,0,2.627,1.175,2.627,2.629C473.206,332.529,472.032,333.703,470.579,333.703z"/>
	<path fill="#802D40" d="M488.974,341.586h-2.627c-1.454,0-2.628-1.174-2.628-2.628c0-1.453,1.174-2.627,2.628-2.627h2.627
		c1.454,0,2.628,1.174,2.628,2.627C491.602,340.413,490.428,341.586,488.974,341.586z"/>
	<path fill="#802D40" d="M467.951,341.586h-2.629c-1.453,0-2.627-1.174-2.627-2.628c0-1.453,1.174-2.627,2.627-2.627h2.629
		c1.453,0,2.628,1.174,2.628,2.627C470.579,340.413,469.404,341.586,467.951,341.586z"/>
	<path fill="#802D40" d="M478.463,341.586h-2.629c-1.453,0-2.629-1.174-2.629-2.628c0-1.453,1.176-2.627,2.629-2.627h2.629
		c1.452,0,2.627,1.174,2.627,2.627C481.09,340.413,479.916,341.586,478.463,341.586z"/>
	<path fill="#802D40" d="M502.115,333.703h-2.629c-1.452,0-2.628-1.174-2.628-2.627c0-1.454,1.176-2.629,2.628-2.629h2.629
		c1.453,0,2.628,1.175,2.628,2.629C504.743,332.529,503.568,333.703,502.115,333.703z"/>
	<path fill="#802D40" d="M512.627,333.703h-2.629c-1.453,0-2.629-1.174-2.629-2.627c0-1.454,1.176-2.629,2.629-2.629h2.629
		c1.452,0,2.627,1.175,2.627,2.629C515.254,332.529,514.08,333.703,512.627,333.703z"/>
	<path fill="#802D40" d="M491.602,333.703h-2.628c-1.453,0-2.627-1.174-2.627-2.627c0-1.454,1.174-2.629,2.627-2.629h2.628
		c1.453,0,2.628,1.175,2.628,2.629C494.23,332.529,493.055,333.703,491.602,333.703z"/>
	<path fill="#802D40" d="M509.999,341.586h-2.629c-1.452,0-2.627-1.174-2.627-2.628c0-1.453,1.175-2.627,2.627-2.627h2.629
		c1.452,0,2.629,1.174,2.629,2.627C512.627,340.413,511.451,341.586,509.999,341.586z"/>
	<path fill="#802D40" d="M499.486,341.586h-2.628c-1.453,0-2.628-1.174-2.628-2.628c0-1.453,1.175-2.627,2.628-2.627h2.628
		c1.454,0,2.629,1.174,2.629,2.627C502.115,340.413,500.94,341.586,499.486,341.586z"/>
	<path fill="#802D40" d="M486.347,325.818h-2.628c-1.454,0-2.629-1.174-2.629-2.627s1.175-2.628,2.629-2.628h2.628
		c1.452,0,2.627,1.175,2.627,2.628S487.799,325.818,486.347,325.818z"/>
	<path fill="#802D40" d="M475.834,325.818h-2.629c-1.452,0-2.627-1.174-2.627-2.627s1.175-2.628,2.627-2.628h2.629
		c1.453,0,2.629,1.175,2.629,2.628S477.288,325.818,475.834,325.818z"/>
	<path fill="#802D40" d="M507.37,325.818h-2.627c-1.453,0-2.628-1.174-2.628-2.627s1.175-2.628,2.628-2.628h2.627
		c1.454,0,2.629,1.175,2.629,2.628S508.824,325.818,507.37,325.818z"/>
	<path fill="#802D40" d="M496.858,325.818h-2.628c-1.453,0-2.628-1.174-2.628-2.627s1.175-2.628,2.628-2.628h2.628
		c1.454,0,2.628,1.175,2.628,2.628S498.312,325.818,496.858,325.818z"/>
	<g>
		<path fill="#FFFFFF" d="M370.713,260.12c0.674,0,1.347-0.259,1.859-0.771l10.512-10.513c1.027-1.026,1.027-2.688,0-3.716
			c-1.027-1.027-2.688-1.027-3.716,0l-10.512,10.513c-1.027,1.027-1.027,2.688,0,3.716
			C369.369,259.861,370.042,260.12,370.713,260.12z"/>
		<path fill="#FFFFFF" d="M370.713,273.258c0.674,0,1.347-0.257,1.859-0.77l5.256-5.256c1.027-1.027,1.027-2.688,0-3.716
			s-2.688-1.027-3.716,0l-5.256,5.257c-1.027,1.027-1.027,2.688,0,3.715C369.369,273.001,370.042,273.258,370.713,273.258z"/>
		<path fill="#FFFFFF" d="M379.361,258.253c-0.476,0.496-0.763,1.183-0.763,1.866c0,0.709,0.287,1.366,0.763,1.865
			c0.496,0.473,1.183,0.762,1.866,0.762c0.709,0,1.366-0.289,1.866-0.762c0.472-0.499,0.762-1.156,0.762-1.865
			c0-0.684-0.29-1.37-0.762-1.866C382.121,257.281,380.36,257.281,379.361,258.253z"/>
		<path fill="#FFFFFF" d="M384.625,256.721c0.512,0.513,1.185,0.77,1.857,0.77c0.674,0,1.346-0.257,1.858-0.77l7.885-7.885
			c1.026-1.026,1.026-2.688,0-3.716c-1.028-1.027-2.688-1.027-3.717,0l-7.884,7.885
			C383.597,254.033,383.597,255.694,384.625,256.721z"/>
		<path fill="#FFFFFF" d="M392.508,258.26l-23.651,23.652c-1.027,1.028-1.027,2.688,0,3.716c0.512,0.514,1.186,0.771,1.856,0.771
			c0.674,0,1.347-0.257,1.859-0.771l23.652-23.651c1.026-1.027,1.026-2.688,0-3.717C395.197,257.234,393.537,257.234,392.508,258.26
			z"/>
		<path fill="#FFFFFF" d="M397.756,252.997c-0.475,0.498-0.762,1.154-0.762,1.866c0,0.71,0.287,1.366,0.762,1.866
			c0.497,0.474,1.154,0.762,1.867,0.762c0.708,0,1.365-0.288,1.865-0.762c0.474-0.5,0.762-1.156,0.762-1.866
			c0-0.712-0.288-1.368-0.762-1.866C400.516,252.025,398.7,252.025,397.756,252.997z"/>
		<path fill="#FFFFFF" d="M473.206,260.12c0.674,0,1.347-0.259,1.858-0.771l10.513-10.513c1.026-1.026,1.026-2.688,0-3.716
			c-1.027-1.027-2.688-1.027-3.716,0l-10.512,10.513c-1.028,1.027-1.028,2.688,0,3.716
			C471.861,259.861,472.534,260.12,473.206,260.12z"/>
		<path fill="#FFFFFF" d="M473.206,273.258c0.674,0,1.347-0.257,1.858-0.77l5.256-5.256c1.028-1.027,1.028-2.688,0-3.716
			c-1.026-1.027-2.688-1.027-3.716,0l-5.255,5.257c-1.028,1.027-1.028,2.688,0,3.715
			C471.861,273.001,472.534,273.258,473.206,273.258z"/>
		<path fill="#FFFFFF" d="M481.853,258.253c-0.476,0.496-0.763,1.183-0.763,1.866c0,0.683,0.287,1.366,0.763,1.865
			c0.496,0.473,1.153,0.762,1.866,0.762c0.683,0,1.366-0.289,1.865-0.762c0.473-0.499,0.763-1.183,0.763-1.865
			c0-0.684-0.29-1.37-0.763-1.866C484.585,257.281,482.825,257.281,481.853,258.253z"/>
		<path fill="#FFFFFF" d="M487.117,256.721c0.512,0.513,1.185,0.77,1.857,0.77c0.674,0,1.346-0.257,1.858-0.77l7.885-7.885
			c1.026-1.026,1.026-2.688,0-3.716c-1.028-1.027-2.689-1.027-3.717,0l-7.884,7.885
			C486.088,254.033,486.088,255.694,487.117,256.721z"/>
		<path fill="#FFFFFF" d="M495,258.26l-23.651,23.652c-1.028,1.028-1.028,2.688,0,3.716c0.512,0.514,1.185,0.771,1.856,0.771
			c0.674,0,1.347-0.257,1.858-0.771l23.653-23.651c1.026-1.027,1.026-2.688,0-3.717C497.689,257.234,496.028,257.234,495,258.26z"/>
		<path fill="#FFFFFF" d="M503.981,252.997c-0.973-0.972-2.761-0.972-3.732,0c-0.476,0.498-0.763,1.154-0.763,1.866
			c0,0.71,0.287,1.366,0.763,1.866c0.496,0.474,1.183,0.762,1.866,0.762c0.683,0,1.366-0.288,1.866-0.762
			c0.473-0.5,0.762-1.183,0.762-1.866C504.743,254.18,504.454,253.495,503.981,252.997z"/>
	</g>
	<polygon fill="#444E66" points="407.506,215.444 407.506,238.963 407.506,262.747 407.506,346.843 465.322,346.843 
		465.322,262.747 465.322,238.963 465.322,215.444 	"/>
	<rect x="418.018" y="294.283" fill="#B0D3F0" width="36.792" height="42.049"/>
	<polyline fill="#B0D3F0" points="418.018,236.467 418.018,281.143 454.81,281.143 454.81,236.467 	"/>
	<path fill="#50508A" d="M372.029,236.467L372.029,236.467c-5.081,0-9.198-4.118-9.198-9.198v-17.082h18.396v17.082
		C381.227,232.349,377.108,236.467,372.029,236.467z"/>
	<path fill="#8697CB" d="M390.424,236.467L390.424,236.467c-5.08,0-9.197-4.118-9.197-9.198v-17.082h18.396v17.082
		C399.624,232.349,395.505,236.467,390.424,236.467z"/>
	<path fill="#50508A" d="M408.82,236.467L408.82,236.467c-5.079,0-9.196-4.118-9.196-9.198v-17.082h18.395v17.082
		C418.018,232.349,413.901,236.467,408.82,236.467z"/>
	<path fill="#8697CB" d="M427.217,236.467L427.217,236.467c-5.081,0-9.199-4.118-9.199-9.198v-17.082h18.396v17.082
		C436.415,232.349,432.296,236.467,427.217,236.467z"/>
	<path fill="#50508A" d="M445.613,236.467L445.613,236.467c-5.08,0-9.198-4.118-9.198-9.198v-17.082h18.396v17.082
		C454.81,232.349,450.693,236.467,445.613,236.467z"/>
	<path fill="#8697CB" d="M464.008,236.467L464.008,236.467c-5.08,0-9.198-4.118-9.198-9.198v-17.082h18.396v17.082
		C473.206,232.349,469.089,236.467,464.008,236.467z"/>
	<path fill="#50508A" d="M482.405,236.467L482.405,236.467c-5.08,0-9.199-4.118-9.199-9.198v-17.082h18.396v17.082
		C491.602,232.349,487.485,236.467,482.405,236.467z"/>
	<path fill="#8697CB" d="M500.8,236.467L500.8,236.467c-5.08,0-9.198-4.118-9.198-9.198v-17.082h18.396v17.082
		C509.999,232.349,505.88,236.467,500.8,236.467z"/>
</g>
<g>
	<polygon fill="#F0785A" points="170.873,195.605 170.873,229.688 170.873,255.518 170.873,346.843 186.961,346.843 
		344.635,346.843 344.635,229.688 344.635,195.605 	"/>
	<rect x="177.308" y="253.526" fill="#B35A5B" width="90.1" height="74.011"/>
	<rect x="183.744" y="259.962" fill="#B0D3F0" width="77.228" height="61.139"/>
	<path fill="#ED7161" d="M212.704,195.605h-43.833c-0.607,0-1.049-0.582-0.882-1.168l13.071-28.394
		c1.635-3.556,5.19-5.834,9.106-5.834h28.974L212.704,195.605z"/>
	<polygon fill="#ED7161" points="302.803,195.605 257.754,195.605 257.754,160.209 296.367,160.209 	"/>
	<path fill="#F0C419" d="M235.229,240.655L235.229,240.655c-12.44,0-22.525-10.085-22.525-22.524v-22.525h45.051v22.525
		C257.754,230.57,247.669,240.655,235.229,240.655z"/>
	<path fill="#F0C419" d="M325.328,240.655L325.328,240.655c-12.439,0-22.524-10.085-22.524-22.524v-22.525h44.706
		c0.189,0,0.344,0.154,0.344,0.345v22.181C347.853,230.57,337.769,240.655,325.328,240.655z"/>
	<polygon fill="#F3D55B" points="257.754,195.605 212.704,195.605 219.14,160.209 257.754,160.209 	"/>
	<path fill="#F3D55B" d="M346.71,195.605h-43.907l-6.437-35.396h28.975c3.916,0,7.471,2.278,9.109,5.837l13.09,28.46
		C347.695,195.058,347.284,195.605,346.71,195.605z"/>
	<path fill="#D36259" d="M190.179,240.655L190.179,240.655c-12.44,0-22.524-10.085-22.524-22.524v-21.618
		c0-0.501,0.405-0.907,0.907-0.907h44.142v22.525C212.704,230.57,202.62,240.655,190.179,240.655z"/>
	<path fill="#D36259" d="M280.279,240.655L280.279,240.655c-12.439,0-22.524-10.085-22.524-22.524v-22.525h45.049v22.525
		C302.803,230.57,292.718,240.655,280.279,240.655z"/>
	<rect x="280.279" y="253.526" fill="#B35A5B" width="51.485" height="93.317"/>
	<rect x="286.714" y="259.962" fill="#B0D3F0" width="38.613" height="80.445"/>
	<path fill="#FFFFFF" d="M318.892,311.448c-1.779,0-3.218-1.439-3.218-3.219v-9.653c0-1.779,1.438-3.218,3.218-3.218
		s3.219,1.438,3.219,3.218v9.653C322.111,310.008,320.671,311.448,318.892,311.448z"/>
	<g>
		<path fill="#FFFFFF" d="M219.14,282.487c0.823,0,1.647-0.315,2.274-0.942l12.871-12.872c1.259-1.258,1.259-3.291,0-4.55
			c-1.258-1.258-3.291-1.258-4.55,0l-12.871,12.871c-1.259,1.259-1.259,3.292,0,4.551
			C217.493,282.171,218.316,282.487,219.14,282.487z"/>
		<path fill="#FFFFFF" d="M219.14,298.576c0.823,0,1.647-0.314,2.274-0.942l6.436-6.437c1.259-1.257,1.259-3.291,0-4.549
			c-1.258-1.259-3.291-1.259-4.55,0l-6.436,6.435c-1.259,1.259-1.259,3.292,0,4.551C217.493,298.261,218.316,298.576,219.14,298.576
			z"/>
		<path fill="#FFFFFF" d="M229.726,280.203c-0.582,0.608-0.934,1.447-0.934,2.284s0.352,1.673,0.934,2.253
			c0.608,0.608,1.413,0.965,2.285,0.965c0.836,0,1.673-0.354,2.285-0.934c0.578-0.611,0.933-1.447,0.933-2.284
			s-0.354-1.676-0.933-2.284C233.105,279.011,230.917,279.011,229.726,280.203z"/>
		<path fill="#FFFFFF" d="M236.171,278.326c0.628,0.628,1.451,0.943,2.275,0.943s1.647-0.315,2.275-0.943l9.652-9.653
			c1.259-1.258,1.259-3.291,0-4.55c-1.258-1.258-3.291-1.258-4.55,0l-9.653,9.654C234.914,275.034,234.914,277.068,236.171,278.326z
			"/>
		<path fill="#FFFFFF" d="M245.825,280.211l-28.96,28.961c-1.259,1.258-1.259,3.292,0,4.55c0.628,0.628,1.451,0.943,2.275,0.943
			c0.823,0,1.647-0.315,2.274-0.943l28.96-28.961c1.259-1.258,1.259-3.291,0-4.55C249.117,278.954,247.083,278.954,245.825,280.211z
			"/>
		<path fill="#FFFFFF" d="M256.82,273.766c-1.19-1.19-3.378-1.19-4.569,0c-0.582,0.608-0.933,1.448-0.933,2.285
			c0,0.836,0.351,1.674,0.933,2.284c0.608,0.58,1.449,0.934,2.285,0.934c0.837,0,1.674-0.354,2.284-0.934
			c0.58-0.61,0.935-1.448,0.935-2.284C257.754,275.214,257.4,274.375,256.82,273.766z"/>
	</g>
	<path fill="#CB8252" d="M186.961,346.843h-19.307l-2.948-17.682c-0.141-0.85,0.516-1.625,1.378-1.625h24.095L186.961,346.843z"/>
	<rect x="174.09" y="292.14" fill="#7F6E5D" width="6.436" height="35.396"/>
	<path fill="#24AE5F" d="M190.784,278.24c0.979-2.472,1.677-5.229,1.149-7.864c-0.229-1.143-0.75-2.24-1.468-3.105
		c-1.21-1.465-1.737-3.569-1.322-5.506c0.393-1.834,0.157-3.894-0.695-5.538c-1.554-2.996-4.646-4.672-7.72-5.109
		c-2.259-0.322-4.752,0.022-6.426,1.747l-1.988,1.718c-2.259,1.065-3.99,3.424-4.485,6.104c-0.268,1.454-0.171,2.979,0.247,4.389
		c0.624,2.102,0.106,4.373-1.087,6.14c-2.69,3.978-3.401,9.676-1.42,14.188c0.251,0.572,0.576,1.139,0.956,1.65
		c1.3,1.747,1.789,4.063,1.245,6.255c-0.125,0.502-0.209,1.017-0.257,1.528c-0.213,2.34,0.264,4.682,0.746,6.974
		c0.502,2.381,1.12,4.952,2.857,6.445c2.355,2.023,5.767,1.238,8.463-0.151c3.811-1.966,7.337-5.203,8.682-9.644
		c0.785-2.591,0.599-5.597-0.453-8.029c-1.063-2.458-1.063-5.376,0.476-7.497C189.31,281.521,190.131,279.894,190.784,278.24z"/>
</g>
<polygon fill="#02B4B6" points="278.197,55.317 239.063,89.29 252.749,94.635 234.093,125.317 271.17,90.523 259.815,85.22 "/>
<polygon fill="#02B4B6" points="93.094,120.31 65.142,144.576 74.918,148.394 61.592,170.31 88.076,145.457 79.965,141.668 "/>
<polygon fill="#02B4B6" points="452.167,119.944 424.213,144.209 433.988,148.027 420.663,169.944 447.146,145.09 439.036,141.302 
	"/>
</svg>
