<?xml version="1.0" encoding="utf-8"?>
<!-- Generator: Adobe Illustrator 16.0.0, SVG Export Plug-In . SVG Version: 6.00 Build 0)  -->
<!DOCTYPE svg PUBLIC "-//W3C//DTD SVG 1.1//EN" "http://www.w3.org/Graphics/SVG/1.1/DTD/svg11.dtd">
<svg version="1.1" id="Layer_1" xmlns="http://www.w3.org/2000/svg" xmlns:xlink="http://www.w3.org/1999/xlink" x="0px" y="0px"
	 width="320px" height="320px" viewBox="0 -159.5 320 320" enable-background="new 0 -159.5 320 320" xml:space="preserve">
<g>
	<path fill="#40596B" d="M254.147-70.459H63.981c-2.812,0-5.151-2.344-5.151-5.151l0,0c0-2.812,2.34-5.151,5.151-5.151h190.166
		c2.808,0,5.151,2.34,5.151,5.151l0,0C259.299-72.803,256.955-70.459,254.147-70.459z"/>
	<rect x="47.587" y="80.826" fill="#ACB3BA" width="224.825" height="19.674"/>
	<rect x="47.587" y="-75.611" fill="#54C0EB" width="224.825" height="32.788"/>
	<rect x="57.894" y="-42.827" fill="#F2F2F2" width="204.684" height="123.653"/>
	<path fill="#FF7058" d="M196.066,12.915h-27.634l9.836-37.939c0.467-1.408-0.937-1.876-1.877-1.408L122.999,22.75
		c-0.94,0.936-0.468,2.339,0.936,2.339h27.633l-9.835,37.939c-0.468,1.408,0.936,1.876,1.876,1.408l53.394-48.714
		C197.938,14.318,197.469,12.915,196.066,12.915z"/>
	<rect x="57.894" y="-42.827" fill="#E4EAEF" width="204.684" height="7.027"/>
	<g>
		<path fill="#ACB3BA" d="M94.894-80.766H74.284v-8.427c0-5.623,4.684-10.307,10.307-10.307l0,0c5.62,0,10.303,4.684,10.303,10.307
			V-80.766L94.894-80.766z"/>
		<path fill="#ACB3BA" d="M245.711-80.766h-21.072v-8.427c0-5.623,4.683-10.307,10.303-10.307l0,0
			c5.618,0,10.306,4.684,10.306,10.307v8.427H245.711z"/>
	</g>
</g>
</svg>
