<?xml version="1.0" encoding="utf-8"?>
<!-- Generator: Adobe Illustrator 16.0.0, SVG Export Plug-In . SVG Version: 6.00 Build 0)  -->
<!DOCTYPE svg PUBLIC "-//W3C//DTD SVG 1.1//EN" "http://www.w3.org/Graphics/SVG/1.1/DTD/svg11.dtd">
<svg version="1.1" id="Layer_1" xmlns="http://www.w3.org/2000/svg" xmlns:xlink="http://www.w3.org/1999/xlink" x="0px" y="0px"
	 width="468px" height="366.5px" viewBox="-80.5 -46.5 468 366.5" enable-background="new -80.5 -46.5 468 366.5"
	 xml:space="preserve">
<path fill="#E4E7E7" d="M93.417,22.102h133.748c7.119,0,12.943,5.824,12.943,12.943v212.685l5,37.56
	c0,7.119-5.827,12.943-12.943,12.943H88.417c-7.12,0-12.944-5.824-12.944-12.943l5-37.56V35.044
	C80.473,27.925,86.299,22.102,93.417,22.102z"/>
<path fill="#586266" d="M97.44,36.759H222.56c2.373,0,4.314,1.942,4.314,4.315v28.187c0,2.373-1.941,4.316-4.314,4.316H97.44
	c-2.372,0-4.314-1.943-4.314-4.316V41.074C93.126,38.701,95.068,36.759,97.44,36.759z"/>
<g>
	<g>
		<path fill="#324D5B" d="M-48.813-18.543L4.736-31.944c7.681-1.922,15.542,2.79,17.464,10.474L52.499,99.597
			c1.923,7.684-2.79,15.542-10.473,17.465l-53.549,13.401c-7.683,1.923-15.542-2.789-17.465-10.473L-59.287-1.078
			C-61.209-8.761-56.497-16.62-48.813-18.543z"/>
		<path fill="#3F5E6D" d="M-48.226,3.576l62.861-15.731c1.28-0.32,2.59,0.466,2.91,1.746L43.183,92.032
			c0.321,1.281-0.465,2.591-1.745,2.912l-62.861,15.731c-1.281,0.32-2.591-0.465-2.912-1.747L-49.972,6.487
			C-50.292,5.207-49.506,3.896-48.226,3.576z"/>
		<path fill="#99A6AD" d="M5.935,111.25l11.642-2.914c1.979-0.495,3.871,0.64,4.366,2.619s-0.64,3.871-2.619,4.366l-11.642,2.914
			c-1.979,0.495-3.871-0.639-4.366-2.618C2.85,113.753,3.956,111.746,5.935,111.25z M-26.984-15.347l13.97-3.496
			c1.28-0.321,2.591,0.465,2.911,1.746c0.32,1.28-0.465,2.591-1.746,2.912l-13.97,3.496c-1.28,0.32-2.591-0.466-2.911-1.746
			C-29.05-13.716-28.264-15.026-26.984-15.347z"/>
		<path fill="#4E6B78" d="M-2.495,32.583l1.483-2.474c0.175-0.292,0.058-0.757-0.233-0.932s-0.757-0.058-0.931,0.233l-1.949,3.087
			c-0.99,0-1.951,0.116-2.881,0.349c-0.931,0.233-1.834,0.583-2.707,1.049l-2.94-1.863c-0.292-0.175-0.756-0.058-0.931,0.233
			c-0.175,0.292-0.058,0.758,0.233,0.932l2.474,1.484c-3.056,2.125-4.685,5.502-3.869,8.762l19.79-4.953
			C4.228,35.229,1.2,33.018-2.495,32.583z M-8.343,39.366c-0.698,0.174-1.28-0.174-1.456-0.874c-0.175-0.699,0.174-1.28,0.873-1.455
			c0.699-0.175,1.281,0.174,1.456,0.872C-7.296,38.608-7.646,39.191-8.343,39.366z M-2.523,37.909
			c-0.698,0.175-1.281-0.174-1.456-0.873c-0.175-0.699,0.175-1.281,0.873-1.456c0.699-0.175,1.28,0.174,1.456,0.873
			C-1.475,37.152-1.824,37.734-2.523,37.909z M-11.25,57.41c0.496,1.979,2.388,3.114,4.367,2.619l1.224,4.89
			c0.292,1.165,1.573,1.833,2.853,1.513c1.281-0.321,2.096-1.514,1.805-2.678l-1.224-4.89l3.493-0.874l1.224,4.89
			c0.292,1.164,1.572,1.833,2.853,1.513c1.281-0.321,2.095-1.514,1.804-2.678l-1.224-4.89c1.979-0.496,3.114-2.387,2.619-4.367
			L5.337,39.653l-19.791,4.953l3.205,12.804L-11.25,57.41z M-17.365,45.334c-0.931,0.233-1.542,1.252-1.309,2.184l2.33,9.312
			c0.233,0.932,1.252,1.543,2.184,1.311c0.932-0.233,1.543-1.252,1.31-2.185l-2.331-9.312
			C-15.414,45.712-16.433,45.101-17.365,45.334z M8.245,38.925c-0.93,0.233-1.542,1.252-1.309,2.184l2.331,9.312
			c0.233,0.932,1.252,1.543,2.183,1.311c0.932-0.233,1.542-1.252,1.309-2.185l-2.33-9.312C10.195,39.303,9.177,38.691,8.245,38.925z
			"/>
	</g>
</g>
<path fill="#3F5E6D" d="M97.44,49.259H222.56c2.373,0,4.314,1.942,4.314,4.315v189.839c0,2.373-1.941,4.316-4.314,4.316H97.44
	c-2.372,0-4.314-1.943-4.314-4.316V53.574C93.126,51.201,95.068,49.259,97.44,49.259z"/>
<circle fill="#999999" cx="158.75" cy="42.384" r="3.75"/>
<g>
	<path fill="#E4E7E7" d="M306.113,10.786l57.896,15.752c6.367,1.732,10.161,8.36,8.429,14.729l-34.024,125.051
		c-1.732,6.369-8.362,10.161-14.729,8.429l-57.896-15.752c-6.367-1.732-10.16-8.36-8.428-14.729l34.024-125.051
		C293.117,12.846,299.746,9.054,306.113,10.786z"/>
	<path fill="#3F5E6D" d="M298.127,30.999l62.526,17.012c1.273,0.347,2.032,1.672,1.686,2.946l-27.723,101.893
		c-0.347,1.275-1.673,2.034-2.946,1.687l-62.526-17.012c-1.273-0.347-2.031-1.672-1.685-2.947l27.723-101.893
		C295.528,31.41,296.854,30.652,298.127,30.999z"/>
	<path fill="#4E6B78" d="M327.433,89.212c-0.917-2.114-2.603-3.692-4.455-4.196c-2.432-0.662-3.788,0.212-5.41-0.229
		c-1.736-0.472-2.696-1.977-4.896-2.575c-2.083-0.567-4.63,0.108-6.618,1.93c-2.787,2.474-4.015,8.358-2.212,14.072
		c0.686,2.053,1.656,4.43,3.623,4.965c1.736,0.473,2.632-0.528,4.947,0.102c2.432,0.662,2.58,1.947,4.316,2.419
		c1.967,0.535,4.187-1.224,5.817-2.646c1.158-1.053,1.662-1.539,2.651-2.886C321.154,97.204,322.223,90.531,327.433,89.212z
		 M322.418,82.501c1.24-0.906,2.408-2.454,2.649-4.253c-1.536-0.293-3.525,0.16-4.914,1.15c-1.242,0.906-2.525,2.423-2.618,4.138
		C319.156,83.977,321.146,83.522,322.418,82.501z"/>
	<path fill="#BFC3C5" d="M299.146,150.66c3.244,0.883,5.098,4.123,4.216,7.365c-0.883,3.242-4.123,5.096-7.366,4.214
		c-3.241-0.882-5.095-4.123-4.213-7.364C292.664,151.632,295.905,149.778,299.146,150.66z M325.908,24.877l13.896,3.781
		c1.274,0.347,2.033,1.672,1.687,2.945c-0.347,1.274-1.672,2.033-2.946,1.686l-13.896-3.781c-1.273-0.347-2.031-1.672-1.685-2.946
		C323.309,25.29,324.634,24.531,325.908,24.877z"/>
</g>
</svg>
