<?xml version="1.0" encoding="utf-8"?>
<!-- Generator: Adobe Illustrator 16.0.0, SVG Export Plug-In . SVG Version: 6.00 Build 0)  -->
<!DOCTYPE svg PUBLIC "-//W3C//DTD SVG 1.1//EN" "http://www.w3.org/Graphics/SVG/1.1/DTD/svg11.dtd">
<svg version="1.1" id="Capa_1" xmlns="http://www.w3.org/2000/svg" xmlns:xlink="http://www.w3.org/1999/xlink" x="0px" y="0px"
	 width="320px" height="320px" viewBox="0 0 320 320" enable-background="new 0 0 320 320" xml:space="preserve">
<g>
	<g>
		<path fill="#324D5B" d="M60.621,55.75h80.769c11.587,0,21.069,9.481,21.069,21.07v182.608c0,11.589-9.481,21.07-21.069,21.07
			H60.621c-11.588,0-21.07-9.481-21.07-21.07V76.82C39.551,65.232,49.032,55.75,60.621,55.75z"/>
		<path fill="#3F5E6D" d="M53.598,87.355h94.814c1.931,0,3.511,1.581,3.511,3.512v154.515c0,1.932-1.58,3.512-3.511,3.512H53.598
			c-1.932,0-3.512-1.58-3.512-3.512V90.867C50.086,88.936,51.666,87.355,53.598,87.355z"/>
		<path fill="#99A6AD" d="M92.226,259.429h17.559c2.985,0,5.268,2.283,5.268,5.268s-2.283,5.267-5.268,5.267H92.226
			c-2.985,0-5.268-2.282-5.268-5.267C86.958,261.887,89.241,259.429,92.226,259.429z M90.47,68.041h21.071
			c1.931,0,3.512,1.581,3.512,3.512s-1.581,3.512-3.512,3.512H90.47c-1.931,0-3.512-1.581-3.512-3.512S88.539,68.041,90.47,68.041z"
			/>
		<path fill="#4E6B78" d="M108.205,144.772l2.985-2.985c0.351-0.351,0.351-1.054,0-1.405c-0.351-0.352-1.054-0.352-1.405,0
			l-3.863,3.688c-1.405-0.351-2.81-0.527-4.214-0.527c-1.405,0-2.81,0.176-4.214,0.527l-3.512-3.688
			c-0.351-0.352-1.053-0.352-1.405,0c-0.351,0.351-0.351,1.054,0,1.405l2.985,2.985c-5.093,1.931-8.604,6.146-8.604,11.062h29.85
			C116.808,150.917,113.296,146.703,108.205,144.772z M97.494,152.322c-1.053,0-1.755-0.702-1.755-1.756s0.702-1.756,1.755-1.756
			c1.054,0,1.756,0.702,1.756,1.756S98.547,152.322,97.494,152.322z M106.273,152.322c-1.053,0-1.756-0.702-1.756-1.756
			s0.703-1.756,1.756-1.756c1.054,0,1.756,0.702,1.756,1.756S107.327,152.322,106.273,152.322z M86.958,176.903
			c0,2.985,2.283,5.268,5.268,5.268v7.375c0,1.756,1.581,3.16,3.512,3.16c1.932,0,3.512-1.404,3.512-3.16v-7.375h5.268v7.375
			c0,1.756,1.581,3.16,3.512,3.16c1.932,0,3.512-1.404,3.512-3.16v-7.375c2.985,0,5.268-2.282,5.268-5.268V157.59h-29.85V176.903
			L86.958,176.903z M82.569,157.59c-1.404,0-2.634,1.229-2.634,2.634v14.046c0,1.405,1.229,2.634,2.634,2.634
			c1.405,0,2.634-1.229,2.634-2.634v-14.046C85.203,158.819,83.974,157.59,82.569,157.59z M121.197,157.59
			c-1.404,0-2.633,1.229-2.633,2.634v14.046c0,1.405,1.229,2.634,2.633,2.634c1.405,0,2.634-1.229,2.634-2.634v-14.046
			C123.831,158.819,122.602,157.59,121.197,157.59z"/>
	</g>
	<g>
		<path fill="#E4E7E7" d="M121.326,55.75h87.794c9.657,0,17.559,7.901,17.559,17.558V262.94c0,9.657-7.901,17.559-17.559,17.559
			h-87.794c-9.657,0-17.559-7.901-17.559-17.559V73.309C103.768,63.651,111.669,55.75,121.326,55.75z"/>
		<path fill="#3F5E6D" d="M117.815,87.355h94.816c1.932,0,3.512,1.581,3.512,3.512v154.515c0,1.932-1.58,3.512-3.512,3.512h-94.816
			c-1.932,0-3.512-1.58-3.512-3.512V90.867C114.303,88.936,115.884,87.355,117.815,87.355z"/>
		<path fill="#4E6B78" d="M181.554,158.292c-2.107-2.634-5.093-4.214-7.901-4.214c-3.688,0-5.268,1.756-7.727,1.756
			c-2.634,0-4.565-1.756-7.902-1.756c-3.16,0-6.497,1.932-8.604,5.268c-2.985,4.564-2.458,13.344,2.283,20.719
			c1.756,2.634,4.039,5.618,7.023,5.618c2.634,0,3.512-1.756,7.023-1.756c3.688,0,4.391,1.756,7.024,1.756
			c2.984,0,5.442-3.336,7.198-5.97c1.229-1.932,1.756-2.81,2.635-5.093C175.759,171.987,174.705,162.154,181.554,158.292z
			 M171.896,150.742c1.404-1.756,2.458-4.39,2.106-7.023c-2.282,0.175-4.915,1.58-6.496,3.512c-1.406,1.755-2.635,4.39-2.107,6.848
			C167.857,154.078,170.491,152.673,171.896,150.742z"/>
		<path fill="#BFC3C5" d="M165.223,255.917c4.918,0,8.78,3.863,8.78,8.779c0,4.917-3.862,8.778-8.78,8.778
			c-4.917,0-8.778-3.862-8.778-8.778C156.444,259.78,160.306,255.917,165.223,255.917z M154.688,68.041h21.071
			c1.932,0,3.512,1.581,3.512,3.512s-1.58,3.512-3.512,3.512h-21.071c-1.932,0-3.512-1.581-3.512-3.512
			S152.756,68.041,154.688,68.041z"/>
	</g>
</g>
<g>
	<g>
		<circle fill="#2ECC71" cx="221.958" cy="98.493" r="57.994"/>
	</g>
	<g>
		<path fill="#FFFFFF" d="M195.838,86.94l5.014,7.556c1.308,1.961,2.396,3.777,3.559,5.74h0.218
			c1.162-2.107,2.325-3.923,3.487-5.813l4.94-7.483h6.901l-11.986,17l12.351,18.163h-7.266l-5.158-7.919
			c-1.381-2.034-2.543-3.996-3.777-6.103h-0.146c-1.162,2.107-2.397,3.996-3.705,6.103l-5.086,7.919h-7.048l12.498-17.945
			L188.718,86.94H195.838z"/>
		<path fill="#FFFFFF" d="M223.885,110.117c0-5.958,3.559-10.172,9.371-12.642l-0.072-0.218c-5.231-2.47-7.482-6.539-7.482-10.607
			c0-7.482,6.32-12.568,14.602-12.568c9.155,0,13.732,5.74,13.732,11.625c0,3.995-1.962,8.282-7.774,11.042v0.218
			c5.885,2.325,9.519,6.466,9.519,12.206c0,8.209-7.048,13.731-16.057,13.731C229.842,122.903,223.885,117.018,223.885,110.117z
			 M249.313,109.826c0-5.739-3.996-8.501-10.389-10.316c-5.521,1.598-8.501,5.231-8.501,9.734c-0.218,4.796,3.415,9.01,9.444,9.01
			C245.606,118.253,249.313,114.693,249.313,109.826z M231.73,86.213c0,4.723,3.561,7.266,9.009,8.719
			c4.069-1.38,7.192-4.287,7.192-8.573c0-3.778-2.251-7.701-7.99-7.701C234.636,78.658,231.73,82.146,231.73,86.213z"/>
	</g>
</g>
</svg>
