<?xml version="1.0" encoding="utf-8"?>
<!-- Generator: Adobe Illustrator 16.0.0, SVG Export Plug-In . SVG Version: 6.00 Build 0)  -->
<!DOCTYPE svg PUBLIC "-//W3C//DTD SVG 1.1//EN" "http://www.w3.org/Graphics/SVG/1.1/DTD/svg11.dtd">
<svg version="1.1" id="Capa_1" xmlns="http://www.w3.org/2000/svg" xmlns:xlink="http://www.w3.org/1999/xlink" x="0px" y="0px"
	 width="320px" height="320px" viewBox="0 0 320 320" enable-background="new 0 0 320 320" xml:space="preserve">
<g>
	<rect x="57.275" y="169.997" fill="#424A60" width="98.181" height="120"/>
	<path fill="#343B49" d="M155.457,232.725H57.275c-1.505,0-2.728-1.22-2.728-2.728s1.222-2.728,2.728-2.728h98.181
		c1.506,0,2.728,1.22,2.728,2.728S156.962,232.725,155.457,232.725z"/>
	<path fill="#343B49" d="M155.457,175.452H57.275c-1.505,0-2.728-1.22-2.728-2.728c0-1.509,1.222-2.729,2.728-2.729h98.181
		c1.506,0,2.728,1.22,2.728,2.729C158.184,174.232,156.962,175.452,155.457,175.452z"/>
	<path fill="#343B49" d="M155.457,289.997H57.275c-1.505,0-2.728-1.22-2.728-2.728s1.222-2.729,2.728-2.729h98.181
		c1.506,0,2.728,1.221,2.728,2.729S156.962,289.997,155.457,289.997z"/>
	<path fill="#556080" d="M155.457,259.997v30h27.273v-30H155.457z M174.548,281.814H163.64v-13.637h10.908V281.814z"/>
	<path fill="#38454F" d="M155.457,229.997v30h27.273v-30H155.457z M174.548,251.814H163.64v-13.637h10.908V251.814z"/>
	<path fill="#556080" d="M155.457,199.997v30h27.273v-30H155.457z M174.548,221.814H163.64v-13.637h10.908V221.814z"/>
	<path fill="#38454F" d="M155.457,169.997v30h27.273v-30H155.457z M174.548,191.814H163.64v-13.637h10.908V191.814z"/>
	<path fill="#556080" d="M30.002,259.997v30h27.273v-30H30.002z M49.093,281.814H38.185v-13.637h10.909L49.093,281.814
		L49.093,281.814z"/>
	<path fill="#38454F" d="M30.002,229.997v30h27.273v-30H30.002z M49.093,251.814H38.185v-13.637h10.909L49.093,251.814
		L49.093,251.814z"/>
	<path fill="#556080" d="M30.002,199.997v30h27.273v-30H30.002z M49.093,221.814H38.185v-13.637h10.909L49.093,221.814
		L49.093,221.814z"/>
	<path fill="#38454F" d="M30.002,169.997v30h27.273v-30H30.002z M49.093,191.814H38.185v-13.637h10.909L49.093,191.814
		L49.093,191.814z"/>
</g>
<g>
	<g>
		<rect x="148.272" y="31.003" fill="#C3E1ED" width="150.725" height="117.999"/>
		<path fill="#E7ECED" d="M297.997,32.004v115.997H149.272V32.004H297.997 M299.998,30.002H147.271v120h152.727V30.002
			L299.998,30.002z"/>
	</g>
	<circle fill="#ED8A19" cx="188.179" cy="58.827" r="17.916"/>
	<polygon fill="#1A9172" points="297.271,109.395 294.544,106.366 261.815,76.367 233.179,107.729 248.135,122.684 259.089,133.639 
		297.271,133.639 	"/>
	<polygon fill="#1A9172" points="149.998,144.548 215.452,144.548 204.497,133.591 174.589,103.684 149.998,125.336 	"/>
	<rect x="149.998" y="133.639" fill="#6B5B4B" width="147.272" height="13.637"/>
	<polygon fill="#25AE88" points="248.135,122.684 218.226,92.776 171.815,133.639 259.089,133.639 	"/>
</g>
<g>
	<g>
		<circle fill="#2ECC71" cx="160" cy="160.001" r="68.059"/>
	</g>
	<polygon fill="#FFFFFF" points="183.814,160 139.954,185.323 139.954,134.677 	"/>
</g>
</svg>
