<?xml version="1.0" encoding="utf-8"?>
<!-- Generator: Adobe Illustrator 16.0.0, SVG Export Plug-In . SVG Version: 6.00 Build 0)  -->
<!DOCTYPE svg PUBLIC "-//W3C//DTD SVG 1.1//EN" "http://www.w3.org/Graphics/SVG/1.1/DTD/svg11.dtd">
<svg version="1.1" id="Layer_1" xmlns="http://www.w3.org/2000/svg" xmlns:xlink="http://www.w3.org/1999/xlink" x="0px" y="0px"
	 width="320px" height="320px" viewBox="96 96 320 320" enable-background="new 96 96 320 320" xml:space="preserve">
<g>
	<polygon fill="#FFD6CF" points="262.615,198.188 265.274,180.273 250.479,179.329 247.53,195.639 	"/>
	<polygon opacity="0.32" fill="#831232" enable-background="new    " points="263.77,191.605 265.274,180.273 250.582,178.739 
		248.689,189.022 	"/>
	<path fill="#347642" d="M176.572,338.108l33.555-32.135l12.101-41.419h18.518l-13.336,48.44c-0.357,1.329-0.996,2.508-1.826,3.504
		c-0.311,0.45-0.659,0.883-1.06,1.283l-39.322,38.039L176.572,338.108z"/>
	<g opacity="0.53">
		<polygon fill="#2B5448" points="222.228,264.556 217.557,280.541 236.344,280.541 240.745,264.556 		"/>
	</g>
	<path fill="#FFD6CF" d="M277.115,140.236c-2.137-2.295-5.031-3.622-8.15-3.733l-13.762-0.495
		c-6.47-0.228-11.899,4.832-12.132,11.288l-0.866,24.103c-0.112,3.12,1.002,6.102,3.139,8.398c2.137,2.296,5.031,3.622,8.15,3.735
		l13.761,0.495c0.144,0.006,0.286,0.008,0.43,0.008c2.962,0,5.777-1.109,7.969-3.146c2.296-2.137,3.622-5.032,3.734-8.151
		l0.867-24.101C280.367,145.514,279.252,142.532,277.115,140.236z"/>
	<g>
		<path fill="#C71C4B" d="M279.337,143.55c-0.524-1.202-1.256-2.321-2.179-3.313c-2.136-2.295-5.03-3.622-8.15-3.733l-13.761-0.495
			c-6.469-0.228-11.899,4.832-12.132,11.288l-0.513,14.267C248.242,160.53,268.232,156.098,279.337,143.55z"/>
	</g>
	<path fill="#71CE93" d="M268.657,212.08c1.488-8.492-4.242-16.658-12.734-18.146l-16.034-2.809
		c-2.558-0.449-5.017,1.278-5.465,3.835l-12.196,69.595l15.26,2.674c0.088,0.178,0.17,0.356,0.271,0.529l25.516,45.044v49.674
		l18.53,2.152v-53.655c0-0.565-0.06-1.118-0.157-1.656c-0.118-1.292-0.499-2.577-1.188-3.77l-21.522-37.995l5.936-33.871
		L268.657,212.08z"/>
	<polygon fill="#71CE93" points="242.717,211.525 277.95,246.759 278.173,246.536 278.186,246.836 322.478,244.927 321.738,227.78 
		284.834,229.371 256.907,202.605 	"/>
	<path fill="#D8EDDE" d="M192.872,373.533l-25.861-25.86l9.563-9.564l19.621,24.78c1.835,2.316,1.648,5.638-0.434,7.734
		L192.872,373.533z"/>
	<polygon fill="#FFD6CF" points="321.738,227.78 344.989,226.603 338.239,244.539 322.478,244.927 	"/>
	<path fill="#3F8E50" d="M281.646,309.315c-0.117-1.291-0.498-2.577-1.187-3.77l-21.522-37.994l2.293-13.084l-36.157-6.142
		l-2.845,16.229l15.26,2.674c0.088,0.178,0.17,0.356,0.271,0.529l25.516,45.044v49.674l18.53,4.69v-56.194
		C281.804,310.406,281.744,309.854,281.646,309.315z"/>
	<circle fill="#FFD6CF" cx="257.162" cy="160.016" r="6.885"/>
	<path fill="#D8EDDE" d="M299.847,376h-36.573v-13.524l31.396,3.647c2.935,0.341,5.151,2.823,5.162,5.777L299.847,376z"/>
	<polygon fill="#71CE93" points="240.745,195.774 215.446,195.774 215.446,196.09 215.226,195.887 185.257,228.556 197.903,240.157 
		222.874,212.938 252.554,212.116 	"/>
	<polygon fill="#FFD6CF" points="197.903,240.157 182.296,257.431 174.386,239.976 185.257,228.556 	"/>
</g>
</svg>
