<?xml version="1.0" encoding="utf-8"?>
<!-- Generator: Adobe Illustrator 16.0.0, SVG Export Plug-In . SVG Version: 6.00 Build 0)  -->
<!DOCTYPE svg PUBLIC "-//W3C//DTD SVG 1.1//EN" "http://www.w3.org/Graphics/SVG/1.1/DTD/svg11.dtd">
<svg version="1.1" id="Layer_1" xmlns="http://www.w3.org/2000/svg" xmlns:xlink="http://www.w3.org/1999/xlink" x="0px" y="0px"
	 width="320px" height="320px" viewBox="0 0 320 320" enable-background="new 0 0 320 320" xml:space="preserve">
<g>
	<path fill="#F4BA48" d="M54.61,247.523V206.82c0-2.907,2.181-5.087,5.088-5.087h198.424c3.997,0,7.269,3.271,7.269,7.268v36.341
		c0,3.998-3.271,7.27-7.269,7.27H59.698C56.791,252.611,54.61,250.43,54.61,247.523"/>
	<g>
		<path fill="#BD9139" d="M80.049,238.075c5.814,0,10.902-4.726,10.902-10.903c0-5.814-4.725-10.902-10.902-10.902
			c-6.178,0-10.902,4.725-10.902,10.902C69.146,232.986,74.234,238.075,80.049,238.075"/>
		<path fill="#BD9139" d="M134.561,201.733v14.536c0,2.181,1.454,3.634,3.634,3.634c2.181,0,3.635-1.453,3.635-3.634v-14.536
			H134.561z"/>
		<path fill="#BD9139" d="M120.024,201.733v21.805c0,2.181,1.454,3.635,3.635,3.635s3.634-1.454,3.634-3.635v-21.805H120.024z"/>
		<path fill="#BD9139" d="M149.098,201.733v21.805c0,2.181,1.453,3.635,3.634,3.635c2.181,0,3.634-1.454,3.634-3.635v-21.805
			H149.098z"/>
		<path fill="#BD9139" d="M105.488,201.733v14.536c0,2.181,1.454,3.634,3.634,3.634s3.634-1.453,3.634-3.634v-14.536H105.488z"/>
		<path fill="#BD9139" d="M58.244,110.878l170.078,147.184c3.27,2.908,8.722,2.544,11.266-1.089l24.35-29.074
			c1.817-2.181,1.453-5.088-0.728-6.904L132.38,110.878H58.244z"/>
	</g>
	<path fill="#F4BA48" d="M54.61,105.791V65.088c0-2.908,2.181-5.088,5.088-5.088h198.424c3.997,0,7.269,3.271,7.269,7.269v36.341
		c0,3.998-3.271,7.268-7.269,7.268H59.698C56.791,110.878,54.61,108.698,54.61,105.791"/>
	<path fill="#BD9139" d="M80.049,96.342c5.814,0,10.902-4.725,10.902-10.903c0-6.178-4.725-10.902-10.902-10.902
		c-6.178,0-10.902,5.088-10.902,10.902C69.146,91.253,74.234,96.342,80.049,96.342"/>
	<path fill="#F4BA48" d="M238.497,219.177c-4.724-3.997-11.266-3.271-15.264,1.454c-3.996,4.725-3.271,11.266,1.455,15.264
		c4.724,3.997,11.265,3.271,15.263-1.454C243.585,229.717,243.223,222.812,238.497,219.177"/>
	<g>
		<path fill="#BD9139" d="M236.316,60v21.805c0,2.181,1.454,3.635,3.635,3.635s3.634-1.454,3.634-3.635V60H236.316z"/>
		<path fill="#BD9139" d="M221.78,60v14.537c0,2.181,1.453,3.634,3.635,3.634c2.181,0,3.634-1.454,3.634-3.634V60H221.78z"/>
		<path fill="#BD9139" d="M207.244,60v21.805c0,2.181,1.453,3.635,3.635,3.635c2.18,0,3.634-1.454,3.634-3.635V60H207.244z"/>
		<path fill="#BD9139" d="M192.707,60v14.537c0,2.181,1.454,3.634,3.634,3.634c2.181,0,3.635-1.454,3.635-3.634V60H192.707z"/>
		<path fill="#BD9139" d="M178.171,60v21.805c0,2.181,1.453,3.635,3.634,3.635c2.182,0,3.635-1.454,3.635-3.635V60H178.171z"/>
		<path fill="#BD9139" d="M163.635,60v14.537c0,2.181,1.453,3.634,3.634,3.634s3.635-1.454,3.635-3.634V60H163.635z"/>
		<path fill="#BD9139" d="M149.098,60v21.805c0,2.181,1.453,3.635,3.634,3.635c2.181,0,3.634-1.454,3.634-3.635V60H149.098z"/>
		<path fill="#BD9139" d="M134.561,60v14.537c0,2.181,1.454,3.634,3.634,3.634c2.181,0,3.635-1.454,3.635-3.634V60H134.561z"/>
		<path fill="#BD9139" d="M120.024,60v21.805c0,2.181,1.454,3.635,3.635,3.635s3.634-1.454,3.634-3.635V60H120.024z"/>
		<path fill="#BD9139" d="M105.488,60v14.537c0,2.181,1.454,3.634,3.634,3.634s3.634-1.454,3.634-3.634V60H105.488z"/>
	</g>
	<g>
		<path fill="#F4BA48" d="M91.678,139.952L91.678,139.952l7.632-9.449c1.09-1.454,1.09-3.998-0.727-5.088
			c-1.454-1.09-3.997-1.09-5.088,0.364l-7.268,9.085L91.678,139.952z"/>
		<path fill="#F4BA48" d="M102.581,149.037L102.581,149.037l12.356-14.9c1.454-1.454,1.09-3.998-0.364-5.088
			c-1.453-1.454-3.997-1.09-5.088,0.363l-12.356,14.901L102.581,149.037z"/>
		<path fill="#F4BA48" d="M113.483,158.85L113.483,158.85l7.996-9.449c1.454-1.454,1.09-3.998-0.364-5.088
			c-1.454-1.454-3.998-1.091-5.088,0.364l-7.996,9.448L113.483,158.85z"/>
		<path fill="#F4BA48" d="M131.654,148.31l-12.72,15.265l5.451,4.723l0,0l12.72-15.263c1.454-1.454,1.091-3.998-0.363-5.088
			C135.288,146.493,133.107,146.857,131.654,148.31"/>
		<path fill="#F4BA48" d="M138.195,163.211l-7.996,9.812l5.451,4.725l0,0l7.995-9.812c1.454-1.454,1.09-3.998-0.363-5.088
			C141.829,161.395,139.649,161.758,138.195,163.211"/>
		<path fill="#F4BA48" d="M154.186,167.209l-13.083,15.264l5.451,4.724l0,0l13.083-15.627c1.453-1.454,1.09-3.998-0.363-5.088
			C157.819,165.392,155.275,165.392,154.186,167.209"/>
		<path fill="#F4BA48" d="M160.363,182.107l-8.358,10.177l5.451,4.725l0,0l8.358-10.176c1.453-1.453,1.09-3.998-0.363-5.088
			C163.997,180.291,161.817,180.291,160.363,182.107"/>
		<path fill="#F4BA48" d="M176.354,185.742l-13.084,15.627l5.451,4.726l0,0l13.083-15.628c1.454-1.453,1.09-3.997-0.363-5.087
			C179.988,183.926,177.443,184.289,176.354,185.742"/>
		<path fill="#F4BA48" d="M182.896,200.643l-8.723,10.176l5.451,4.725l0,0l8.723-10.539c1.453-1.453,1.09-3.998-0.364-5.088
			C186.529,198.825,183.986,199.189,182.896,200.643"/>
		<path fill="#F4BA48" d="M198.521,204.277l-13.446,15.989l5.451,4.725l0,0l13.446-15.99c1.453-1.454,1.091-3.997-0.363-5.089
			C202.156,202.823,199.976,202.823,198.521,204.277"/>
	</g>
</g>
</svg>
