<?xml version="1.0" encoding="utf-8"?>
<!-- Generator: Adobe Illustrator 16.0.0, SVG Export Plug-In . SVG Version: 6.00 Build 0)  -->
<!DOCTYPE svg PUBLIC "-//W3C//DTD SVG 1.1//EN" "http://www.w3.org/Graphics/SVG/1.1/DTD/svg11.dtd">
<svg version="1.1" id="Capa_1" xmlns="http://www.w3.org/2000/svg" xmlns:xlink="http://www.w3.org/1999/xlink" x="0px" y="0px"
	 width="320px" height="320px" viewBox="0 0 320 320" enable-background="new 0 0 320 320" xml:space="preserve">
<rect x="57.143" y="34.286" fill="#424A60" width="205.714" height="251.429"/>
<path fill="#343B49" d="M262.857,165.715H57.143c-3.154,0-5.714-2.555-5.714-5.715s2.56-5.714,5.714-5.714h205.714
	c3.154,0,5.714,2.554,5.714,5.714S266.012,165.715,262.857,165.715z"/>
<path fill="#343B49" d="M262.857,45.714H57.143c-3.154,0-5.714-2.554-5.714-5.714s2.56-5.714,5.714-5.714h205.714
	c3.154,0,5.714,2.554,5.714,5.714S266.012,45.714,262.857,45.714z"/>
<path fill="#343B49" d="M262.857,285.715H57.143c-3.154,0-5.714-2.555-5.714-5.715s2.56-5.715,5.714-5.715h205.714
	c3.154,0,5.714,2.555,5.714,5.715S266.012,285.715,262.857,285.715z"/>
<path fill="#556080" d="M262.857,222.857v62.857H320v-62.857H262.857z M302.857,268.571H280V240h22.857V268.571z"/>
<path fill="#38454F" d="M262.857,160v62.857H320V160H262.857z M302.857,205.715H280v-28.572h22.857V205.715z"/>
<path fill="#556080" d="M262.857,97.143V160H320V97.143H262.857z M302.857,142.857H280v-28.571h22.857V142.857z"/>
<path fill="#38454F" d="M262.857,34.286v62.857H320V34.286H262.857z M302.857,80H280V51.429h22.857V80z"/>
<path fill="#556080" d="M0,222.857v62.857h57.143v-62.857H0z M40,268.571H17.143V240H40V268.571z"/>
<path fill="#38454F" d="M0,160v62.857h57.143V160H0z M40,205.715H17.143v-28.572H40V205.715z"/>
<path fill="#556080" d="M0,97.143V160h57.143V97.143H0z M40,142.857H17.143v-28.571H40V142.857z"/>
<path fill="#38454F" d="M0,34.286v62.857h57.143V34.286H0z M40,80H17.143V51.429H40V80z"/>
</svg>
