<?xml version="1.0" encoding="utf-8"?>
<!-- Generator: Adobe Illustrator 16.0.0, SVG Export Plug-In . SVG Version: 6.00 Build 0)  -->
<!DOCTYPE svg PUBLIC "-//W3C//DTD SVG 1.1//EN" "http://www.w3.org/Graphics/SVG/1.1/DTD/svg11.dtd">
<svg version="1.1" id="Capa_1" xmlns="http://www.w3.org/2000/svg" xmlns:xlink="http://www.w3.org/1999/xlink" x="0px" y="0px"
	 width="380.042px" height="226.387px" viewBox="0 0 380.042 226.387" enable-background="new 0 0 380.042 226.387"
	 xml:space="preserve">
<g>
	<g>
		<g>
			<path fill="#33354E" d="M76.988,111.495H0L19.481,1.069h76.987l-4.295,23.927H42.791l-3.527,20.701h40.792l-4.288,23.927H34.967
				l-3.066,17.943h49.383L76.988,111.495z"/>
			<path fill="#33354E" d="M144.624,111.495l0.919-24.086h-25.615l-7.513,24.086H83.123L122.544,1.069h50.612l0.601,110.425H144.624
				z M138.331,27.905l-12.109,38.953h20.091l1.688-38.953H138.331z"/>
			<path fill="#33354E" d="M211.951,80.054c0,7.054,5.083,10.58,15.266,10.58c10.165,0,15.256-3.172,15.256-9.511
				c0-3.376-1.741-6.134-5.215-8.281c-3.482-2.148-7.689-3.934-12.657-5.365c-4.95-1.433-9.918-3.094-14.867-4.985
				c-4.968-1.892-9.185-4.853-12.657-8.893c-3.483-4.039-5.216-9.077-5.216-15.114C191.86,12.825,208.372,0,241.394,0
				c12.065,0,21.195,2.271,27.383,6.823c6.188,4.543,9.272,10.854,9.272,18.933c0,2.971-0.38,5.808-1.149,8.512
				c-0.77,2.714-1.556,4.632-2.378,5.755l-1.219,1.838h-27.154c2.246-2.351,3.376-5.313,3.376-8.892c0-6.646-4.348-9.97-13.028-9.97
				c-10.942,0-16.423,3.474-16.423,10.43c0,3.474,1.75,6.24,5.216,8.282c3.482,2.041,7.699,3.659,12.657,4.825
				c4.959,1.177,9.943,2.635,14.956,4.376c5.002,1.741,9.245,4.622,12.728,8.662c3.474,4.039,5.215,9.28,5.215,15.725
				c0,12.984-3.889,22.619-11.658,28.903c-7.77,6.293-19.737,9.432-35.887,9.432c-16.157,0-27.197-2.855-33.128-8.583
				c-4.393-4.295-6.594-10.227-6.594-17.793c0-2.863,0.309-5.984,0.919-9.351l0.469-2.458h27.595l-0.301,1.838
				C212.048,78.313,211.951,79.233,211.951,80.054z"/>
			<path fill="#33354E" d="M326.514,39.873l25.915-38.803h27.613l-47.235,67.937l-7.513,42.488h-27.764l7.514-42.488L281.736,1.069
				h29.291l11.969,38.803H326.514z"/>
		</g>
	</g>
	<g>
		<g>
			<path fill="#02B4B6" d="M12.219,197.832c-0.571,3.076-0.571,5.862,0,8.367c0.58,2.497,1.591,4.614,3.032,6.347
				c1.441,1.73,3.243,3.093,5.415,4.104c2.162,1.011,4.482,1.564,6.996,1.661c0.764,0,1.555-0.069,2.373-0.211
				c0.817-0.15,1.924-0.457,3.322-0.94c1.389-0.483,3.19-1.134,5.406-1.95c2.206-0.819,5.097-1.899,8.657-3.244l1.723,8.227
				l-12.392,4.175c-1.741,0.581-3.587,1.063-5.555,1.451c-1.979,0.378-3.64,0.57-4.984,0.57c-3.647,0-6.971-0.65-9.95-1.942
				c-2.98-1.3-5.484-3.146-7.497-5.555c-2.021-2.407-3.463-5.317-4.333-8.728c-0.869-3.41-0.913-7.286-0.149-11.609l0.299-1.442
				l7.928-45.149c0.668-4.043,2.021-7.813,4.043-11.329c2.021-3.507,4.035-6.179,6.056-8.007c2.118-1.916,3.77-3.34,4.974-4.254
				c1.204-0.913,2.435-1.705,3.683-2.382c1.055-0.476,2.638-1.169,4.755-2.093c2.119-0.903,5.053-1.361,8.798-1.361
				c1.354,0,2.936,0.238,4.763,0.72c1.829,0.483,3.463,0.959,4.905,1.442l10.529,4.474l-4.042,7.496l-11.681-4.903
				c-0.871-0.387-1.802-0.721-2.813-1.011c-1.011-0.291-1.995-0.432-2.962-0.432c-2.593,0-5.167,0.599-7.717,1.802
				c-2.548,1.205-4.852,2.813-6.917,4.835c-2.066,2.021-3.85,4.324-5.334,6.917c-1.495,2.602-2.479,5.299-2.962,8.086
				L12.219,197.832z"/>
			<path fill="#02B4B6" d="M85.933,123.977l-8.085,45.721h35.199l8.078-45.721h8.226l-17.745,100.829h-8.218l8.218-46.592h-35.2
				l-8.218,46.592h-8.077l17.737-100.829H85.933z"/>
			<path fill="#02B4B6" d="M130.792,224.806h-7.787l40.816-100.979h12.26l5.335,100.979h-7.646l-1.582-28.135h-30.146
				L130.792,224.806z M169.307,133.354h-1.881l-21.639,54.81h25.682L169.307,133.354z"/>
			<path fill="#02B4B6" d="M238.547,180.948l10.23,43.999h-8.069l-10.529-41.829c-1.933,0.283-3.849,0.432-5.774,0.432h-17.164
				l-7.216,41.397h-7.638l17.015-96.786c2.69-0.958,5.528-1.881,8.508-2.742c2.506-0.773,5.292-1.441,8.367-2.022
				c3.076-0.57,6.108-0.86,9.089-0.86c3.938,0,7.628,0.65,11.038,1.942c3.41,1.3,6.293,3.172,8.648,5.624
				c2.355,2.453,4.044,5.46,5.054,9.019c1.012,3.56,1.081,7.646,0.22,12.261c-0.579,3.269-1.547,6.469-2.892,9.589
				c-1.344,3.129-2.953,5.984-4.825,8.587c-1.881,2.594-4.025,4.878-6.425,6.846C243.786,178.382,241.237,179.893,238.547,180.948z
				 M232.623,130.894c-1.723,0-3.551,0.202-5.476,0.579c-1.924,0.387-3.699,0.819-5.335,1.302c-1.934,0.579-3.849,1.204-5.774,1.871
				l-7.216,40.536h16.014c6.926,0,12.868-2.065,17.815-6.206c4.948-4.13,8.096-10.001,9.448-17.595c0.669-3.753,0.669-6.926,0-9.519
				c-0.668-2.602-1.881-4.711-3.603-6.346c-1.731-1.636-3.973-2.813-6.715-3.534C239.04,131.253,235.99,130.894,232.623,130.894z"/>
			<path fill="#02B4B6" d="M280.664,151.531l-8.367,47.883c-0.491,2.699-0.439,5.194,0.141,7.506
				c0.581,2.304,1.582,4.325,3.024,6.056c1.449,1.732,3.199,3.103,5.273,4.113c2.057,1.011,4.298,1.513,6.706,1.513
				c0.957,0,2.381-0.194,4.254-0.58c1.872-0.379,4.781-1.538,8.728-3.454l4.904-27.264h8.076l-5.773,32.448
				c-5.96,2.883-10.768,4.712-14.415,5.484c-3.665,0.765-6.169,1.151-7.505,1.151c-3.851,0-7.261-0.772-10.248-2.303
				c-2.971-1.538-5.406-3.629-7.278-6.274c-1.881-2.646-3.154-5.723-3.823-9.237c-0.677-3.508-0.677-7.234,0-11.181l8.077-45.861
				c2.021-9.044,5.89-16.137,11.611-21.278c5.721-5.142,12.472-7.717,20.268-7.717c1.344,0.098,2.926,0.334,4.765,0.72
				c1.817,0.379,3.453,0.862,4.895,1.442l8.507,3.463l-4.324,8.218l-9.369-3.894c-2.311-0.958-4.323-1.441-6.063-1.441
				c-2.496,0-4.974,0.554-7.427,1.661c-2.452,1.107-4.685,2.594-6.707,4.474c-2.021,1.871-3.727,4.061-5.115,6.557
				C282.071,146.24,281.138,148.833,280.664,151.531z"/>
			<path fill="#02B4B6" d="M380.042,123.977l-1.441,8.217h-32.459l-6.627,37.793H364.9l-1.583,8.368h-25.4l-6.628,38.084h32.749
				l-1.442,8.367h-40.975l17.746-100.829H380.042z"/>
		</g>
	</g>
</g>
</svg>
