<?xml version="1.0" encoding="utf-8"?>
<!-- Generator: Adobe Illustrator 16.0.0, SVG Export Plug-In . SVG Version: 6.00 Build 0)  -->
<!DOCTYPE svg PUBLIC "-//W3C//DTD SVG 1.1//EN" "http://www.w3.org/Graphics/SVG/1.1/DTD/svg11.dtd">
<svg version="1.1" id="Capa_1" xmlns="http://www.w3.org/2000/svg" xmlns:xlink="http://www.w3.org/1999/xlink" x="0px" y="0px"
	 width="153.039px" height="80.299px" viewBox="0 0 153.039 80.299" enable-background="new 0 0 153.039 80.299"
	 xml:space="preserve">
<g>
	<g>
		<path fill="#FFFFFF" d="M7.525,7.544h72.111l9.205-7.529H3.524C1.401,0.015,0,1.789,0,3.997v71.938
			C0,78.138,1.401,80.3,3.524,80.3h34.958l4.895-8.363H7.525V7.544z M148.221,21.757h-3.544V3.997c0-2.208-2.844-3.981-4.963-3.981
			h-34.879l-4.96,7.529h37.275v64.394H62.923l-8.522,8.362h85.313c2.119,0,4.963-2.161,4.963-4.366V57.72h3.544
			c2.204,0,4.817-1.561,4.817-3.768V25.975C153.039,23.771,150.425,21.757,148.221,21.757z"/>
		<polygon fill="#FFFFFF" points="96.838,0 52.239,38.718 67.837,44.81 46.575,79.778 88.83,40.123 75.888,34.079 		"/>
	</g>
</g>
</svg>
