<?xml version="1.0" encoding="utf-8"?>
<!-- Generator: Adobe Illustrator 16.0.0, SVG Export Plug-In . SVG Version: 6.00 Build 0)  -->
<!DOCTYPE svg PUBLIC "-//W3C//DTD SVG 1.1//EN" "http://www.w3.org/Graphics/SVG/1.1/DTD/svg11.dtd">
<svg version="1.1" id="Capa_1" xmlns="http://www.w3.org/2000/svg" xmlns:xlink="http://www.w3.org/1999/xlink" x="0px" y="0px"
	 width="153.556px" height="200px" viewBox="0 0 153.556 200" enable-background="new 0 0 153.556 200" xml:space="preserve">
<g>
	<g>
		<path fill="#BDC3C7" d="M7.525,7.544h72.111l9.205-7.529H3.524C1.401,0.015,0,1.789,0,3.997v71.937
			c0,2.204,1.401,4.366,3.524,4.366h34.958l4.895-8.363H7.525V7.544z M148.221,21.757h-3.544V3.997c0-2.208-2.844-3.981-4.963-3.981
			h-34.879l-4.96,7.529h37.276v64.393H62.923l-8.522,8.363h85.313c2.119,0,4.963-2.162,4.963-4.366V57.72h3.544
			c2.204,0,4.817-1.561,4.817-3.768V25.975C153.039,23.771,150.425,21.757,148.221,21.757z"/>
		<polygon fill="#02B4B6" points="96.838,0 52.239,38.718 67.837,44.809 46.575,79.778 88.83,40.123 75.888,34.079 		"/>
	</g>
	<g>
		<g>
			<path fill="#33354E" d="M31.247,135.348H0.268l7.839-44.433h30.979l-1.729,9.627H17.486l-1.419,8.33h16.414l-1.725,9.628H14.338
				l-1.234,7.22h19.871L31.247,135.348z"/>
			<path fill="#33354E" d="M58.462,135.348l0.37-9.692H48.525l-3.023,9.692H33.715l15.863-44.433h20.366l0.242,44.433H58.462z
				 M55.93,101.713l-4.873,15.674h8.084l0.679-15.674H55.93z"/>
			<path fill="#33354E" d="M85.552,122.696c0,2.839,2.046,4.258,6.144,4.258c4.09,0,6.139-1.276,6.139-3.827
				c0-1.358-0.701-2.469-2.099-3.332c-1.401-0.864-3.094-1.583-5.093-2.159c-1.992-0.576-3.991-1.244-5.982-2.006
				c-1.999-0.761-3.696-1.953-5.093-3.578c-1.402-1.625-2.099-3.652-2.099-6.082c0-10.325,6.644-15.485,19.932-15.485
				c4.854,0,8.528,0.914,11.018,2.746c2.49,1.828,3.731,4.368,3.731,7.619c0,1.194-0.152,2.336-0.463,3.425
				c-0.31,1.092-0.625,1.863-0.957,2.315l-0.49,0.739H99.314c0.903-0.945,1.357-2.138,1.357-3.577c0-2.675-1.748-4.012-5.241-4.012
				c-4.403,0-6.608,1.398-6.608,4.197c0,1.398,0.703,2.511,2.099,3.333c1.401,0.82,3.098,1.472,5.093,1.941
				c1.996,0.474,4.001,1.061,6.018,1.761c2.014,0.7,3.721,1.859,5.121,3.485c1.398,1.625,2.099,3.734,2.099,6.327
				c0,5.226-1.564,9.102-4.69,11.63c-3.126,2.532-7.942,3.795-14.44,3.795c-6.501,0-10.943-1.148-13.33-3.453
				c-1.768-1.728-2.653-4.115-2.653-7.159c0-1.152,0.125-2.408,0.37-3.763l0.188-0.989h11.104l-0.121,0.739
				C85.592,121.996,85.552,122.366,85.552,122.696z"/>
			<path fill="#33354E" d="M131.652,106.528l10.427-15.614h11.111l-19.007,27.336l-3.022,17.097h-11.172l3.023-17.097l-9.38-27.336
				h11.787l4.815,15.614H131.652z"/>
		</g>
	</g>
	<g>
		<g>
			<path fill="#02B4B6" d="M5.185,170.088c-0.23,1.238-0.23,2.358,0,3.367c0.233,1.005,0.64,1.856,1.22,2.554
				c0.58,0.696,1.305,1.244,2.178,1.65c0.87,0.407,1.804,0.63,2.815,0.669c0.307,0,0.625-0.027,0.955-0.085
				c0.329-0.061,0.774-0.184,1.337-0.379c0.559-0.194,1.284-0.456,2.175-0.784c0.888-0.329,2.051-0.764,3.483-1.306l0.693,3.311
				l-4.986,1.68c-0.701,0.234-1.443,0.428-2.235,0.584c-0.796,0.152-1.464,0.229-2.005,0.229c-1.468,0-2.805-0.262-4.003-0.781
				c-1.199-0.523-2.207-1.266-3.017-2.235c-0.813-0.969-1.393-2.14-1.744-3.512c-0.35-1.372-0.368-2.932-0.061-4.672l0.121-0.58
				l3.19-18.167c0.269-1.627,0.813-3.144,1.627-4.559c0.813-1.411,1.624-2.486,2.437-3.222c0.852-0.771,1.517-1.344,2.001-1.712
				c0.484-0.368,0.979-0.687,1.482-0.958c0.424-0.191,1.061-0.471,1.913-0.843c0.853-0.363,2.034-0.548,3.54-0.548
				c0.545,0,1.181,0.096,1.917,0.29c0.736,0.194,1.394,0.386,1.974,0.58l4.236,1.8l-1.626,3.017l-4.7-1.973
				c-0.35-0.155-0.725-0.29-1.132-0.406c-0.407-0.118-0.803-0.175-1.191-0.175c-1.043,0-2.08,0.241-3.105,0.726
				c-1.025,0.485-1.952,1.132-2.783,1.945c-0.832,0.813-1.549,1.74-2.146,2.783c-0.602,1.047-0.998,2.132-1.192,3.254L5.185,170.088
				z"/>
			<path fill="#02B4B6" d="M34.846,140.37l-3.253,18.397h14.164l3.25-18.397h3.31l-7.14,40.572H41.87l3.307-18.748H31.012
				l-3.307,18.748h-3.25l7.137-40.572H34.846z"/>
			<path fill="#02B4B6" d="M52.896,180.942h-3.133l16.424-40.632h4.933l2.146,40.632H70.19l-0.637-11.321h-12.13L52.896,180.942z
				 M68.394,144.144h-0.757l-8.707,22.055h10.333L68.394,144.144z"/>
			<path fill="#02B4B6" d="M96.254,163.294l4.117,17.705h-3.247l-4.236-16.831c-0.778,0.113-1.549,0.174-2.324,0.174h-6.906
				l-2.903,16.657h-3.073l6.847-38.945c1.082-0.386,2.224-0.757,3.423-1.104c1.009-0.311,2.129-0.58,3.366-0.813
				c1.238-0.229,2.458-0.347,3.658-0.347c1.584,0,3.069,0.262,4.441,0.782c1.372,0.522,2.532,1.276,3.479,2.263
				c0.947,0.987,1.628,2.197,2.034,3.629c0.407,1.433,0.435,3.076,0.088,4.934c-0.232,1.314-0.622,2.604-1.164,3.858
				c-0.54,1.259-1.188,2.407-1.941,3.455c-0.757,1.043-1.619,1.963-2.585,2.755C98.363,162.262,97.337,162.87,96.254,163.294z
				 M93.871,143.153c-0.693,0-1.429,0.082-2.203,0.233c-0.774,0.155-1.488,0.33-2.146,0.524c-0.778,0.232-1.549,0.483-2.323,0.752
				l-2.903,16.312h6.442c2.787,0,5.179-0.832,7.169-2.497c1.991-1.662,3.258-4.024,3.802-7.08c0.27-1.511,0.27-2.787,0-3.83
				c-0.269-1.047-0.757-1.896-1.449-2.554c-0.696-0.658-1.599-1.131-2.702-1.422C96.453,143.298,95.226,143.153,93.871,143.153z"/>
			<path fill="#02B4B6" d="M113.202,151.458l-3.366,19.267c-0.198,1.086-0.178,2.09,0.057,3.021c0.233,0.927,0.637,1.74,1.216,2.437
				c0.583,0.697,1.288,1.248,2.122,1.654c0.828,0.407,1.729,0.609,2.698,0.609c0.385,0,0.958-0.078,1.713-0.233
				c0.753-0.152,1.923-0.619,3.511-1.39l1.975-10.971h3.248l-2.322,13.057c-2.398,1.159-4.333,1.896-5.801,2.207
				c-1.475,0.308-2.482,0.463-3.02,0.463c-1.55,0-2.921-0.311-4.124-0.927c-1.194-0.619-2.175-1.46-2.929-2.524
				c-0.756-1.064-1.269-2.303-1.538-3.717c-0.272-1.412-0.272-2.911,0-4.499l3.251-18.453c0.813-3.64,2.369-6.494,4.672-8.563
				c2.302-2.068,5.018-3.105,8.155-3.105c0.541,0.04,1.177,0.135,1.917,0.29c0.731,0.152,1.389,0.347,1.969,0.58l3.424,1.394
				l-1.74,3.307l-3.771-1.566c-0.93-0.386-1.738-0.58-2.439-0.58c-1.005,0-2.001,0.223-2.988,0.669
				c-0.986,0.444-1.885,1.043-2.699,1.8c-0.813,0.753-1.499,1.633-2.058,2.638C113.768,149.328,113.392,150.372,113.202,151.458z"/>
			<path fill="#02B4B6" d="M153.19,140.37l-0.58,3.307h-13.062l-2.666,15.207h10.214l-0.637,3.367h-10.221l-2.666,15.324h13.177
				l-0.58,3.367h-16.487l7.141-40.572H153.19z"/>
		</g>
	</g>
	<g>
		<path fill="#646464" d="M8.284,192.005c0.042-0.245,0.021-0.473-0.063-0.681c-0.081-0.207-0.21-0.386-0.379-0.54
			c-0.175-0.151-0.379-0.271-0.61-0.361c-0.239-0.092-0.478-0.135-0.727-0.135c-0.123,0-0.291,0.019-0.498,0.061
			s-0.418,0.099-0.632,0.165c-0.214,0.07-0.424,0.147-0.631,0.228c-0.207,0.084-0.379,0.176-0.516,0.271l-1.534,8.78H1.637
			l1.636-9.358L2.9,189.977l0.87-0.723l0.52,0.639c0.4-0.193,0.787-0.352,1.168-0.474c0.379-0.126,0.741-0.187,1.085-0.187
			c0.61,0,1.158,0.131,1.649,0.394c0.492,0.263,0.79,0.67,0.899,1.221c0.249-0.333,0.516-0.601,0.8-0.807
			c0.281-0.207,0.568-0.369,0.856-0.488c0.291-0.115,0.576-0.199,0.849-0.249c0.277-0.046,0.541-0.07,0.787-0.07
			c0.498,0,0.909,0.089,1.235,0.267c0.323,0.183,0.568,0.411,0.733,0.694c0.165,0.285,0.27,0.594,0.312,0.935
			c0.042,0.337,0.035,0.67-0.021,1.004l-1.348,7.66h-1.074l1.323-7.517c0.042-0.264,0.052-0.509,0.031-0.743
			c-0.021-0.236-0.084-0.442-0.186-0.622c-0.102-0.179-0.26-0.326-0.467-0.435c-0.207-0.113-0.478-0.169-0.807-0.169
			c-0.871,0-1.544,0.245-2.021,0.737c-0.474,0.491-0.786,1.176-0.94,2.06l-1.158,6.688H6.919L8.284,192.005z"/>
		<path fill="#646464" d="M21.891,198.778l0.333,0.372l-0.871,0.748l-0.477-0.563c-0.484,0.25-0.969,0.422-1.46,0.52
			c-0.491,0.096-0.874,0.145-1.151,0.145c-0.386,0-0.733-0.081-1.046-0.239c-0.309-0.158-0.565-0.371-0.765-0.643
			c-0.2-0.266-0.337-0.582-0.415-0.939c-0.077-0.361-0.077-0.741-0.01-1.141l0.207-1.159c0.07-0.398,0.204-0.778,0.407-1.13
			c0.196-0.351,0.446-0.659,0.744-0.919c0.295-0.264,0.625-0.471,0.993-0.621c0.365-0.154,0.741-0.229,1.127-0.229
			c0.098,0,0.245,0.007,0.435,0.021c0.197,0.014,0.407,0.039,0.631,0.081c0.231,0.042,0.449,0.103,0.664,0.176
			c0.214,0.077,0.396,0.175,0.551,0.302l0.123-0.705c0.053-0.316,0.053-0.632,0-0.941c-0.056-0.312-0.165-0.589-0.319-0.838
			c-0.162-0.25-0.358-0.449-0.59-0.6c-0.239-0.155-0.505-0.229-0.807-0.229c-0.112,0-0.316,0.036-0.614,0.103
			c-0.298,0.07-0.604,0.141-0.923,0.208c-0.373,0.084-0.772,0.178-1.2,0.29l-0.123-0.972c0.467-0.112,0.902-0.215,1.302-0.313
			c0.348-0.084,0.688-0.157,1.018-0.228c0.33-0.067,0.565-0.103,0.702-0.103c0.442,0,0.842,0.103,1.193,0.309
			c0.351,0.207,0.639,0.481,0.87,0.818c0.225,0.341,0.386,0.727,0.485,1.162c0.098,0.435,0.105,0.877,0.021,1.333L21.891,198.778z
			 M21.54,194.76c0-0.014-0.056-0.06-0.166-0.134c-0.112-0.076-0.263-0.157-0.456-0.248c-0.197-0.092-0.429-0.173-0.706-0.25
			c-0.277-0.073-0.572-0.111-0.888-0.111c-0.239,0-0.471,0.048-0.695,0.144c-0.228,0.098-0.436,0.229-0.625,0.393
			c-0.183,0.165-0.344,0.355-0.474,0.569c-0.13,0.213-0.218,0.445-0.256,0.693l-0.232,1.307c-0.084,0.484,0.015,0.898,0.282,1.253
			c0.266,0.351,0.638,0.526,1.108,0.526c0.204,0,0.449-0.038,0.733-0.112c0.284-0.077,0.558-0.162,0.817-0.261
			c0.302-0.107,0.625-0.233,0.955-0.371L21.54,194.76z"/>
		<path fill="#646464" d="M31.893,190.949c0.108,0.347,0.147,0.694,0.112,1.045c-0.031,0.354-0.087,0.717-0.154,1.088l-1.183,6.71
			h-1.095l1.284-7.353c0.123-0.701,0.035-1.242-0.27-1.614c-0.306-0.371-0.691-0.558-1.162-0.558c-0.259,0-0.603,0.039-1.024,0.123
			c-0.421,0.085-0.919,0.291-1.502,0.621l-1.53,8.78h-1.057l1.639-9.338l-0.376-0.436l0.871-0.747l0.516,0.621
			c0.814-0.425,1.569-0.639,2.26-0.639c0.618,0,1.179,0.126,1.677,0.382C31.394,189.893,31.728,190.327,31.893,190.949z"/>
		<path fill="#646464" d="M34.479,197.102l1.183-6.647h-1.758l0.183-1.035h1.762l0.723-4.121h1.102l-0.727,4.121h1.906l-0.189,1.035
			H36.76l-1.18,6.749c-0.056,0.29-0.063,0.529-0.021,0.716c0.042,0.186,0.119,0.337,0.239,0.456
			c0.112,0.116,0.256,0.199,0.421,0.249c0.168,0.045,0.344,0.07,0.541,0.07h0.456l-0.211,1.119h-0.558
			c-0.344,0-0.656-0.053-0.929-0.154c-0.277-0.104-0.506-0.263-0.685-0.477s-0.305-0.496-0.372-0.839
			C34.392,197.999,34.398,197.585,34.479,197.102z"/>
		<path fill="#646464" d="M39.905,192.174c0.07-0.414,0.21-0.805,0.414-1.162c0.211-0.358,0.463-0.67,0.769-0.93
			c0.305-0.264,0.638-0.471,1.003-0.621c0.369-0.154,0.747-0.229,1.147-0.229h0.709c0.386,0,0.737,0.074,1.063,0.229
			c0.326,0.15,0.593,0.357,0.796,0.621c0.21,0.26,0.358,0.571,0.446,0.93c0.091,0.357,0.095,0.748,0.01,1.162l-0.105,0.681
			c-0.109,0.578-0.302,1.066-0.576,1.46c-0.281,0.393-0.618,0.716-1.018,0.965c-0.399,0.246-0.849,0.425-1.344,0.526
			c-0.498,0.105-1.014,0.154-1.555,0.154c-0.221,0-0.442-0.007-0.66-0.021c-0.225-0.011-0.442-0.032-0.667-0.061l-0.225,1.243
			c0,0.551,0.183,0.989,0.547,1.316c0.365,0.322,0.818,0.484,1.355,0.484c0.056,0,0.239-0.032,0.54-0.092
			c0.302-0.063,0.628-0.13,0.976-0.196c0.4-0.084,0.846-0.183,1.344-0.291l0.039,1.099c-0.523,0.108-0.997,0.199-1.425,0.266
			c-0.361,0.07-0.708,0.134-1.045,0.19c-0.341,0.053-0.544,0.08-0.611,0.08c-0.442,0-0.85-0.08-1.221-0.239
			c-0.376-0.157-0.688-0.381-0.933-0.673c-0.25-0.288-0.429-0.628-0.541-1.025c-0.109-0.393-0.123-0.824-0.042-1.291L39.905,192.174
			z M42.972,194.802h0.042c0.246,0,0.484-0.053,0.716-0.154c0.225-0.105,0.432-0.241,0.618-0.414
			c0.189-0.172,0.344-0.372,0.467-0.593c0.123-0.218,0.208-0.452,0.25-0.702l0.144-0.87c0.056-0.33,0.046-0.61-0.032-0.839
			c-0.077-0.228-0.203-0.411-0.393-0.548c-0.187-0.14-0.407-0.238-0.66-0.302c-0.26-0.063-0.53-0.092-0.821-0.092
			c-0.26,0-0.52,0.039-0.776,0.124c-0.256,0.084-0.488,0.2-0.691,0.351c-0.21,0.154-0.387,0.341-0.53,0.562
			c-0.144,0.222-0.246,0.467-0.298,0.744l-0.477,2.713L42.972,194.802z"/>
		<path fill="#646464" d="M54.817,190.949c0.108,0.347,0.147,0.694,0.112,1.045c-0.031,0.354-0.087,0.717-0.154,1.088l-1.183,6.71
			h-1.095l1.284-7.353c0.123-0.701,0.035-1.242-0.27-1.614c-0.306-0.371-0.691-0.558-1.162-0.558c-0.26,0-0.604,0.039-1.025,0.123
			c-0.421,0.085-0.919,0.291-1.502,0.621l-1.53,8.78h-1.056l1.639-9.338l-0.375-0.436l0.87-0.747l0.516,0.621
			c0.814-0.425,1.569-0.639,2.26-0.639c0.618,0,1.179,0.126,1.677,0.382C54.318,189.893,54.651,190.327,54.817,190.949z"/>
		<path fill="#646464" d="M57.361,192.174c0.07-0.414,0.211-0.805,0.414-1.162c0.211-0.358,0.464-0.67,0.769-0.93
			c0.306-0.264,0.639-0.471,1.004-0.621c0.369-0.154,0.748-0.229,1.148-0.229h0.708c0.386,0,0.737,0.074,1.063,0.229
			c0.326,0.15,0.593,0.357,0.797,0.621c0.21,0.26,0.358,0.571,0.446,0.93c0.091,0.357,0.095,0.748,0.01,1.162l-0.105,0.681
			c-0.108,0.578-0.301,1.066-0.575,1.46c-0.281,0.393-0.618,0.716-1.018,0.965c-0.4,0.246-0.85,0.425-1.345,0.526
			c-0.498,0.105-1.014,0.154-1.555,0.154c-0.221,0-0.442-0.007-0.659-0.021c-0.225-0.011-0.443-0.032-0.667-0.061l-0.225,1.243
			c0,0.551,0.182,0.989,0.547,1.316c0.365,0.322,0.818,0.484,1.354,0.484c0.056,0,0.239-0.032,0.541-0.092
			c0.302-0.063,0.628-0.13,0.976-0.196c0.399-0.084,0.845-0.183,1.344-0.291l0.039,1.099c-0.523,0.108-0.997,0.199-1.425,0.266
			c-0.361,0.07-0.709,0.134-1.046,0.19c-0.34,0.053-0.544,0.08-0.61,0.08c-0.442,0-0.85-0.08-1.222-0.239
			c-0.375-0.157-0.688-0.381-0.934-0.673c-0.249-0.288-0.428-0.628-0.541-1.025c-0.108-0.393-0.122-0.824-0.042-1.291
			L57.361,192.174z M60.429,194.802h0.042c0.246,0,0.484-0.053,0.716-0.154c0.224-0.105,0.431-0.241,0.618-0.414
			c0.189-0.172,0.344-0.372,0.467-0.593c0.123-0.218,0.207-0.452,0.249-0.702l0.144-0.87c0.056-0.33,0.045-0.61-0.032-0.839
			c-0.077-0.228-0.204-0.411-0.394-0.548c-0.186-0.14-0.407-0.238-0.659-0.302c-0.26-0.063-0.53-0.092-0.821-0.092
			c-0.26,0-0.52,0.039-0.776,0.124c-0.256,0.084-0.488,0.2-0.691,0.351c-0.211,0.154-0.386,0.341-0.53,0.562
			c-0.144,0.222-0.246,0.467-0.298,0.744l-0.478,2.713L60.429,194.802z"/>
		<path fill="#646464" d="M65.938,197.102l1.179-6.647h-1.762l0.189-1.035h1.758l0.727-4.121h1.095l-0.723,4.121h1.902l-0.183,1.035
			h-1.909l-1.179,6.749c-0.056,0.29-0.063,0.529-0.021,0.716c0.042,0.186,0.123,0.337,0.238,0.456
			c0.12,0.116,0.26,0.199,0.429,0.249c0.161,0.045,0.344,0.07,0.533,0.07h0.456l-0.203,1.119h-0.562
			c-0.344,0-0.653-0.053-0.934-0.154c-0.274-0.104-0.502-0.263-0.681-0.477s-0.302-0.496-0.372-0.839
			C65.847,197.999,65.854,197.585,65.938,197.102z"/>
		<path fill="#646464" d="M71.364,192.174c0.07-0.414,0.204-0.805,0.414-1.162c0.204-0.358,0.463-0.67,0.766-0.93
			c0.301-0.264,0.639-0.471,1.003-0.621c0.365-0.154,0.751-0.229,1.151-0.229H75.4c0.386,0,0.744,0.074,1.067,0.229
			c0.323,0.15,0.589,0.357,0.8,0.621c0.203,0.26,0.351,0.571,0.442,0.93c0.091,0.357,0.094,0.748,0.01,1.162l-0.102,0.681
			c-0.112,0.578-0.305,1.066-0.582,1.46c-0.274,0.393-0.611,0.716-1.011,0.965c-0.404,0.246-0.85,0.425-1.348,0.526
			c-0.499,0.105-1.018,0.154-1.555,0.154c-0.221,0-0.438-0.007-0.663-0.021c-0.218-0.011-0.442-0.032-0.66-0.061l-0.231,1.243
			c0,0.551,0.182,0.989,0.551,1.316c0.365,0.322,0.817,0.484,1.358,0.484c0.052,0,0.231-0.032,0.537-0.092
			c0.305-0.063,0.628-0.13,0.972-0.196c0.4-0.084,0.849-0.183,1.348-0.291l0.042,1.099c-0.526,0.108-1.004,0.199-1.432,0.266
			c-0.358,0.07-0.706,0.134-1.046,0.19c-0.337,0.053-0.541,0.08-0.611,0.08c-0.442,0-0.849-0.08-1.221-0.239
			c-0.372-0.157-0.681-0.381-0.934-0.673c-0.246-0.288-0.424-0.628-0.534-1.025c-0.112-0.393-0.126-0.824-0.042-1.291
			L71.364,192.174z M74.428,194.802h0.042c0.25,0,0.488-0.053,0.712-0.154c0.229-0.105,0.436-0.241,0.625-0.414
			c0.183-0.172,0.337-0.372,0.463-0.593c0.126-0.218,0.207-0.452,0.249-0.702l0.144-0.87c0.056-0.33,0.045-0.61-0.028-0.839
			c-0.077-0.228-0.21-0.411-0.393-0.548c-0.189-0.14-0.411-0.238-0.667-0.302c-0.252-0.063-0.526-0.092-0.814-0.092
			c-0.267,0-0.523,0.039-0.779,0.124c-0.253,0.084-0.484,0.2-0.695,0.351c-0.204,0.154-0.379,0.341-0.526,0.562
			c-0.147,0.222-0.246,0.467-0.302,0.744l-0.478,2.713L74.428,194.802z"/>
		<path fill="#646464" d="M84.447,196.729c-0.066,0.33-0.063,0.632,0.015,0.898c0.073,0.271,0.197,0.502,0.372,0.695
			c0.172,0.192,0.383,0.34,0.632,0.446c0.246,0.102,0.522,0.154,0.829,0.154c0.136,0,0.312-0.019,0.525-0.053
			c0.214-0.031,0.425-0.07,0.632-0.112c0.249-0.057,0.499-0.116,0.744-0.187l0.168,0.951c-0.291,0.098-0.568,0.176-0.828,0.228
			c-0.235,0.057-0.484,0.105-0.743,0.148c-0.268,0.038-0.492,0.06-0.688,0.06c-0.452,0-0.863-0.077-1.229-0.239
			c-0.368-0.158-0.674-0.383-0.912-0.671c-0.242-0.29-0.414-0.631-0.52-1.027c-0.103-0.394-0.112-0.825-0.028-1.292l0.744-4.33
			c0.084-0.467,0.245-0.898,0.484-1.292c0.245-0.393,0.537-0.729,0.885-1.007c0.343-0.273,0.727-0.491,1.146-0.649
			c0.422-0.161,0.86-0.238,1.317-0.238c0.217,0,0.448,0.027,0.681,0.081c0.234,0.056,0.449,0.119,0.642,0.186
			c0.235,0.07,0.456,0.153,0.663,0.249l-0.393,0.891c-0.193-0.069-0.393-0.129-0.6-0.185c-0.18-0.057-0.376-0.106-0.58-0.146
			c-0.21-0.042-0.406-0.063-0.604-0.063c-0.302,0-0.597,0.053-0.877,0.154c-0.284,0.105-0.54,0.253-0.779,0.445
			c-0.231,0.194-0.435,0.422-0.611,0.686c-0.171,0.26-0.287,0.558-0.34,0.888L84.447,196.729z"/>
		<path fill="#646464" d="M96.751,196.957c-0.112,0.635-0.318,1.144-0.624,1.529c-0.302,0.387-0.64,0.688-1.011,0.903
			c-0.372,0.213-0.748,0.354-1.12,0.424c-0.375,0.07-0.691,0.103-0.95,0.103c-0.268,0-0.568-0.032-0.913-0.103
			c-0.344-0.07-0.667-0.211-0.962-0.424c-0.298-0.215-0.526-0.517-0.688-0.903c-0.154-0.386-0.183-0.895-0.07-1.529l0.828-4.783
			c0.112-0.635,0.316-1.148,0.622-1.533c0.304-0.387,0.639-0.685,1.007-0.893c0.364-0.207,0.729-0.343,1.105-0.413
			c0.372-0.067,0.691-0.103,0.95-0.103c0.265,0,0.569,0.035,0.924,0.103c0.354,0.07,0.67,0.206,0.965,0.413
			c0.288,0.208,0.516,0.506,0.681,0.893c0.169,0.385,0.193,0.898,0.084,1.533L96.751,196.957z M95.818,196.81l0.786-4.492
			c0.085-0.457,0.066-0.817-0.049-1.088c-0.119-0.27-0.28-0.478-0.488-0.621c-0.206-0.144-0.431-0.242-0.674-0.292
			c-0.241-0.045-0.452-0.07-0.631-0.07s-0.403,0.025-0.67,0.07c-0.274,0.05-0.534,0.148-0.791,0.292
			c-0.255,0.144-0.487,0.352-0.705,0.621c-0.21,0.271-0.358,0.631-0.441,1.088l-0.786,4.492c-0.085,0.457-0.07,0.817,0.049,1.088
			s0.28,0.481,0.488,0.631c0.206,0.151,0.435,0.254,0.684,0.303c0.245,0.046,0.464,0.07,0.639,0.07c0.183,0,0.4-0.024,0.667-0.07
			c0.26-0.049,0.522-0.151,0.786-0.303c0.26-0.149,0.495-0.36,0.702-0.631S95.734,197.267,95.818,196.81z"/>
		<path fill="#646464" d="M106.382,190.949c0.105,0.347,0.147,0.694,0.111,1.045c-0.034,0.354-0.087,0.717-0.154,1.088l-1.183,6.71
			h-1.099l1.285-7.353c0.126-0.701,0.035-1.242-0.268-1.614c-0.305-0.371-0.69-0.558-1.161-0.558c-0.263,0-0.604,0.039-1.025,0.123
			c-0.42,0.085-0.922,0.291-1.501,0.621l-1.534,8.78h-1.053l1.636-9.338l-0.373-0.436l0.871-0.747l0.517,0.621
			c0.813-0.425,1.568-0.639,2.256-0.639c0.621,0,1.18,0.126,1.678,0.382C105.884,189.893,106.213,190.327,106.382,190.949z"/>
		<path fill="#646464" d="M108.926,192.174c0.069-0.414,0.207-0.805,0.414-1.162c0.207-0.358,0.464-0.67,0.769-0.93
			c0.302-0.264,0.639-0.471,1.004-0.621c0.365-0.154,0.747-0.229,1.147-0.229h0.705c0.387,0,0.741,0.074,1.066,0.229
			c0.324,0.15,0.59,0.357,0.798,0.621c0.207,0.26,0.354,0.571,0.445,0.93c0.092,0.357,0.092,0.748,0.007,1.162l-0.102,0.681
			c-0.108,0.578-0.305,1.066-0.579,1.46c-0.276,0.393-0.614,0.716-1.014,0.965c-0.404,0.246-0.85,0.425-1.345,0.526
			c-0.498,0.105-1.018,0.154-1.559,0.154c-0.217,0-0.438-0.007-0.659-0.021c-0.221-0.011-0.442-0.032-0.663-0.061l-0.229,1.243
			c0,0.551,0.184,0.989,0.548,1.316c0.364,0.322,0.821,0.484,1.358,0.484c0.052,0,0.234-0.032,0.537-0.092
			c0.305-0.063,0.631-0.13,0.976-0.196c0.399-0.084,0.849-0.183,1.347-0.291l0.038,1.099c-0.522,0.108-1,0.199-1.428,0.266
			c-0.357,0.07-0.709,0.134-1.045,0.19c-0.338,0.053-0.541,0.08-0.611,0.08c-0.442,0-0.85-0.08-1.222-0.239
			c-0.371-0.157-0.685-0.381-0.933-0.673c-0.246-0.288-0.429-0.628-0.537-1.025c-0.109-0.393-0.123-0.824-0.043-1.291
			L108.926,192.174z M111.991,194.802h0.042c0.249,0,0.487-0.053,0.716-0.154c0.225-0.105,0.435-0.241,0.621-0.414
			c0.186-0.172,0.341-0.372,0.467-0.593c0.122-0.218,0.203-0.452,0.245-0.702l0.148-0.87c0.056-0.33,0.042-0.61-0.032-0.839
			c-0.077-0.228-0.208-0.411-0.394-0.548c-0.186-0.14-0.41-0.238-0.663-0.302c-0.257-0.063-0.525-0.092-0.818-0.092
			c-0.263,0-0.522,0.039-0.775,0.124c-0.256,0.084-0.487,0.2-0.694,0.351c-0.207,0.154-0.383,0.341-0.526,0.562
			c-0.147,0.222-0.246,0.467-0.302,0.744l-0.478,2.713L111.991,194.802z"/>
		<path fill="#646464" d="M117.626,196.729c-0.07,0.33-0.066,0.632,0.007,0.898c0.077,0.271,0.203,0.502,0.372,0.695
			c0.176,0.192,0.386,0.34,0.632,0.446c0.253,0.102,0.526,0.154,0.828,0.154c0.141,0,0.315-0.019,0.53-0.053
			c0.214-0.031,0.425-0.07,0.632-0.112c0.249-0.057,0.498-0.116,0.747-0.187l0.165,0.951c-0.292,0.098-0.564,0.176-0.828,0.228
			c-0.235,0.057-0.485,0.105-0.748,0.148c-0.26,0.038-0.491,0.06-0.681,0.06c-0.456,0-0.87-0.077-1.235-0.239
			c-0.364-0.158-0.666-0.383-0.908-0.671c-0.243-0.29-0.415-0.631-0.517-1.027c-0.104-0.394-0.115-0.825-0.035-1.292l0.748-4.33
			c0.08-0.467,0.242-0.898,0.487-1.292c0.239-0.393,0.533-0.729,0.878-1.007c0.343-0.273,0.729-0.491,1.151-0.649
			c0.42-0.161,0.859-0.238,1.312-0.238c0.225,0,0.45,0.027,0.688,0.081c0.232,0.056,0.446,0.119,0.639,0.186
			c0.236,0.07,0.457,0.153,0.664,0.249l-0.394,0.891c-0.192-0.069-0.393-0.129-0.599-0.185c-0.184-0.057-0.373-0.106-0.583-0.146
			c-0.204-0.042-0.407-0.063-0.597-0.063c-0.307,0-0.597,0.053-0.885,0.154c-0.28,0.105-0.541,0.253-0.771,0.445
			c-0.239,0.194-0.443,0.422-0.611,0.686c-0.176,0.26-0.288,0.558-0.344,0.888L117.626,196.729z"/>
		<path fill="#646464" d="M124.667,197.102l1.179-6.647h-1.762l0.189-1.035h1.759l0.727-4.121h1.095l-0.723,4.121h1.901
			l-0.182,1.035h-1.909l-1.18,6.749c-0.056,0.29-0.063,0.529-0.021,0.716c0.042,0.186,0.123,0.337,0.24,0.456
			c0.118,0.116,0.259,0.199,0.427,0.249c0.162,0.045,0.345,0.07,0.534,0.07h0.456l-0.204,1.119h-0.561
			c-0.345,0-0.652-0.053-0.935-0.154c-0.273-0.104-0.501-0.263-0.68-0.477c-0.18-0.214-0.303-0.496-0.373-0.839
			C124.575,197.999,124.583,197.585,124.667,197.102z"/>
		<path fill="#646464" d="M134.893,198.778l0.334,0.372l-0.87,0.748l-0.475-0.563c-0.484,0.25-0.972,0.422-1.46,0.52
			c-0.491,0.096-0.877,0.145-1.151,0.145c-0.386,0-0.736-0.081-1.046-0.239c-0.309-0.158-0.568-0.371-0.765-0.643
			c-0.203-0.266-0.341-0.582-0.414-0.939c-0.077-0.361-0.081-0.741-0.015-1.141l0.211-1.159c0.071-0.398,0.204-0.778,0.403-1.13
			c0.201-0.351,0.446-0.659,0.744-0.919c0.299-0.264,0.629-0.471,0.993-0.621c0.365-0.154,0.745-0.229,1.131-0.229
			c0.098,0,0.242,0.007,0.435,0.021c0.193,0.014,0.404,0.039,0.632,0.081c0.229,0.042,0.449,0.103,0.66,0.176
			c0.218,0.077,0.399,0.175,0.551,0.302l0.123-0.705c0.056-0.316,0.056-0.632,0-0.941c-0.057-0.312-0.162-0.589-0.319-0.838
			c-0.158-0.25-0.354-0.449-0.59-0.6c-0.235-0.155-0.506-0.229-0.807-0.229c-0.113,0-0.316,0.036-0.615,0.103
			c-0.294,0.07-0.603,0.141-0.918,0.208c-0.373,0.084-0.773,0.178-1.201,0.29l-0.127-0.972c0.471-0.112,0.906-0.215,1.306-0.313
			c0.344-0.084,0.685-0.157,1.019-0.228c0.329-0.067,0.561-0.103,0.702-0.103c0.442,0,0.838,0.103,1.192,0.309
			c0.352,0.207,0.639,0.481,0.867,0.818c0.228,0.341,0.39,0.727,0.487,1.162c0.095,0.435,0.106,0.877,0.021,1.333L134.893,198.778z
			 M134.542,194.76c0-0.014-0.057-0.06-0.165-0.134c-0.109-0.076-0.264-0.157-0.452-0.248c-0.197-0.092-0.429-0.173-0.709-0.25
			c-0.274-0.073-0.569-0.111-0.889-0.111c-0.234,0-0.468,0.048-0.691,0.144c-0.231,0.098-0.436,0.229-0.625,0.393
			c-0.186,0.165-0.344,0.355-0.477,0.569c-0.13,0.213-0.218,0.445-0.257,0.693l-0.228,1.307c-0.084,0.484,0.011,0.898,0.28,1.253
			c0.268,0.351,0.64,0.526,1.105,0.526c0.207,0,0.453-0.038,0.734-0.112c0.287-0.077,0.558-0.162,0.82-0.261
			c0.303-0.107,0.621-0.233,0.952-0.371L134.542,194.76z"/>
		<path fill="#646464" d="M144.007,189.833l0.807-4.517h1.036l-2.38,13.483l0.372,0.456l-0.87,0.723l-0.52-0.62
			c-0.484,0.248-0.965,0.413-1.445,0.497c-0.484,0.081-0.871,0.123-1.162,0.123c-0.386,0-0.733-0.077-1.035-0.229
			c-0.302-0.15-0.562-0.357-0.766-0.621c-0.21-0.262-0.351-0.572-0.428-0.93c-0.074-0.361-0.077-0.74-0.007-1.141l0.85-4.885
			c0.069-0.403,0.202-0.779,0.414-1.13c0.203-0.352,0.456-0.664,0.754-0.934c0.298-0.267,0.625-0.479,0.986-0.632
			c0.357-0.151,0.729-0.225,1.116-0.225c0.234,0,0.548,0.021,0.939,0.07C143.063,189.373,143.512,189.541,144.007,189.833z
			 M142.516,198.179l1.263-7.146c-0.413-0.316-0.831-0.52-1.253-0.6c-0.421-0.085-0.747-0.127-0.982-0.127s-0.467,0.049-0.694,0.147
			c-0.229,0.095-0.432,0.224-0.621,0.382c-0.187,0.158-0.341,0.348-0.464,0.569c-0.127,0.221-0.21,0.455-0.252,0.705l-0.889,5.033
			c-0.08,0.48,0.011,0.897,0.277,1.252c0.271,0.352,0.64,0.527,1.109,0.527c0.126,0,0.315-0.019,0.568-0.053
			c0.257-0.031,0.521-0.081,0.786-0.145c0.273-0.063,0.513-0.137,0.727-0.229C142.305,198.41,142.446,198.302,142.516,198.179z"/>
		<path fill="#646464" d="M152.662,196.957c-0.108,0.635-0.318,1.144-0.621,1.529c-0.302,0.387-0.642,0.688-1.014,0.903
			c-0.372,0.213-0.748,0.354-1.12,0.424c-0.371,0.07-0.688,0.103-0.95,0.103c-0.265,0-0.565-0.032-0.91-0.103
			c-0.348-0.07-0.666-0.211-0.965-0.424c-0.298-0.215-0.523-0.517-0.685-0.903c-0.157-0.386-0.182-0.895-0.07-1.529l0.829-4.783
			c0.108-0.635,0.315-1.148,0.617-1.533c0.306-0.387,0.639-0.685,1.008-0.893c0.365-0.207,0.733-0.343,1.104-0.413
			c0.373-0.067,0.692-0.103,0.955-0.103c0.26,0,0.568,0.035,0.92,0.103c0.354,0.07,0.674,0.206,0.964,0.413
			c0.293,0.208,0.517,0.506,0.686,0.893c0.164,0.385,0.189,0.898,0.081,1.533L152.662,196.957z M151.732,196.81l0.786-4.492
			c0.084-0.457,0.063-0.817-0.053-1.088c-0.115-0.27-0.277-0.478-0.488-0.621c-0.202-0.144-0.428-0.242-0.673-0.292
			c-0.239-0.045-0.45-0.07-0.632-0.07c-0.176,0-0.4,0.025-0.671,0.07c-0.271,0.05-0.53,0.148-0.789,0.292
			c-0.252,0.144-0.488,0.352-0.702,0.621c-0.214,0.271-0.361,0.631-0.446,1.088l-0.785,4.492c-0.081,0.457-0.067,0.817,0.052,1.088
			c0.116,0.271,0.281,0.481,0.485,0.631c0.21,0.151,0.435,0.254,0.684,0.303c0.249,0.046,0.464,0.07,0.643,0.07
			s0.4-0.024,0.663-0.07c0.264-0.049,0.522-0.151,0.786-0.303c0.263-0.149,0.495-0.36,0.705-0.631
			C151.5,197.627,151.648,197.267,151.732,196.81z"/>
	</g>
</g>
</svg>
