<?xml version="1.0" encoding="utf-8"?>
<!-- Generator: Adobe Illustrator 16.0.0, SVG Export Plug-In . SVG Version: 6.00 Build 0)  -->
<!DOCTYPE svg PUBLIC "-//W3C//DTD SVG 1.1//EN" "http://www.w3.org/Graphics/SVG/1.1/DTD/svg11.dtd">
<svg version="1.1" id="Capa_1" xmlns="http://www.w3.org/2000/svg" xmlns:xlink="http://www.w3.org/1999/xlink" x="0px" y="0px"
	 width="381.619px" height="497.042px" viewBox="0 0 381.619 497.042" enable-background="new 0 0 381.619 497.042"
	 xml:space="preserve">
<g>
	<g>
		<path fill="#FFFFFF" d="M18.702,18.75h179.213l22.874-18.711H8.76C3.481,0.038,0,4.446,0,9.933v178.778
			c0,5.477,3.481,10.85,8.76,10.85h86.877l12.166-20.783H18.702V18.75z M368.359,54.071h-8.807V9.933
			c0-5.486-7.066-9.895-12.335-9.895h-86.68L248.212,18.75h92.639v160.029H156.378l-21.181,20.783h212.021
			c5.269,0,12.335-5.373,12.335-10.85v-45.265h8.807c5.478,0,11.976-3.878,11.976-9.365V64.553
			C380.335,59.075,373.837,54.071,368.359,54.071z"/>
		<polygon fill="#FFFFFF" points="240.663,0 129.824,96.224 168.59,111.359 115.748,198.265 220.761,99.714 188.598,84.693 		"/>
	</g>
	<g>
		<g>
			<path fill="#FFFFFF" d="M77.654,336.367H0.666l19.482-110.424h76.986L92.84,249.87H43.457L39.93,270.57h40.793l-4.288,23.928
				H35.634l-3.066,17.943h49.384L77.654,336.367z"/>
			<path fill="#FFFFFF" d="M145.291,336.367l0.919-24.086h-25.615l-7.513,24.086H83.789l39.422-110.424h50.612l0.601,110.424
				H145.291z M138.998,252.778l-12.109,38.953h20.091l1.688-38.953H138.998z"/>
			<path fill="#FFFFFF" d="M212.617,304.927c0,7.053,5.083,10.58,15.266,10.58c10.165,0,15.256-3.172,15.256-9.512
				c0-3.375-1.741-6.132-5.215-8.281c-3.482-2.148-7.689-3.934-12.657-5.365c-4.95-1.432-9.918-3.094-14.867-4.984
				c-4.968-1.893-9.185-4.854-12.657-8.893c-3.483-4.039-5.216-9.078-5.216-15.115c0-25.659,16.512-38.484,49.534-38.484
				c12.065,0,21.195,2.271,27.383,6.823c6.188,4.543,9.272,10.854,9.272,18.933c0,2.971-0.38,5.808-1.149,8.512
				c-0.77,2.714-1.556,4.632-2.378,5.755l-1.219,1.838h-27.154c2.246-2.352,3.376-5.313,3.376-8.892c0-6.646-4.348-9.97-13.028-9.97
				c-10.942,0-16.423,3.474-16.423,10.43c0,3.474,1.75,6.241,5.216,8.282c3.482,2.041,7.699,3.66,12.657,4.826
				c4.959,1.176,9.943,2.635,14.956,4.375c5.002,1.742,9.245,4.623,12.728,8.662c3.474,4.039,5.215,9.281,5.215,15.725
				c0,12.984-3.889,22.619-11.658,28.904c-7.77,6.293-19.737,9.432-35.887,9.432c-16.157,0-27.197-2.855-33.129-8.584
				c-4.393-4.295-6.594-10.227-6.594-17.793c0-2.863,0.31-5.984,0.92-9.349l0.469-2.459h27.595l-0.301,1.838
				C212.715,303.186,212.617,304.105,212.617,304.927z"/>
			<path fill="#FFFFFF" d="M327.181,264.746l25.915-38.804h27.613l-47.235,67.937l-7.513,42.488h-27.764l7.514-42.488
				l-23.309-67.937h29.291l11.969,38.804H327.181z"/>
		</g>
	</g>
	<g>
		<g>
			<path fill="#FFFFFF" d="M12.886,422.705c-0.571,3.076-0.571,5.861,0,8.367c0.58,2.496,1.591,4.613,3.032,6.346
				c1.441,1.73,3.243,3.094,5.414,4.104c2.162,1.012,4.482,1.564,6.996,1.662c0.765,0,1.556-0.07,2.373-0.211
				c0.818-0.15,1.925-0.457,3.322-0.941c1.389-0.482,3.19-1.133,5.406-1.949c2.205-0.82,5.097-1.9,8.656-3.244l1.723,8.227
				l-12.392,4.174c-1.741,0.582-3.587,1.064-5.555,1.451c-1.979,0.379-3.64,0.57-4.983,0.57c-3.648,0-6.971-0.65-9.95-1.941
				c-2.979-1.301-5.484-3.146-7.497-5.555c-2.021-2.408-3.463-5.318-4.334-8.729c-0.869-3.41-0.912-7.285-0.148-11.609l0.299-1.441
				l7.928-45.15c0.668-4.043,2.021-7.813,4.043-11.328c2.021-3.508,4.035-6.18,6.057-8.008c2.117-1.916,3.77-3.34,4.974-4.254
				c1.204-0.912,2.435-1.705,3.683-2.381c1.055-0.477,2.638-1.17,4.755-2.094c2.118-0.902,5.054-1.361,8.798-1.361
				c1.354,0,2.936,0.238,4.764,0.721s3.463,0.959,4.904,1.441l10.529,4.475l-4.043,7.496l-11.68-4.904
				c-0.871-0.387-1.803-0.721-2.813-1.01c-1.011-0.291-1.995-0.432-2.962-0.432c-2.593,0-5.168,0.598-7.717,1.801
				c-2.549,1.205-4.852,2.814-6.917,4.836s-3.85,4.324-5.335,6.916c-1.494,2.602-2.479,5.299-2.961,8.086L12.886,422.705z"/>
			<path fill="#FFFFFF" d="M86.6,348.849l-8.085,45.721h35.199l8.077-45.721h8.227l-17.744,100.83h-8.219l8.219-46.592H77.072
				l-8.218,46.592h-8.077l17.737-100.83H86.6z"/>
			<path fill="#FFFFFF" d="M131.459,449.679h-7.787l40.816-100.979h12.261l5.335,100.979h-7.646l-1.582-28.135h-30.146
				L131.459,449.679z M169.974,358.226h-1.882l-21.639,54.811h25.682L169.974,358.226z"/>
			<path fill="#FFFFFF" d="M239.214,405.82l10.23,44h-8.069l-10.529-41.83c-1.933,0.283-3.849,0.432-5.774,0.432h-17.164
				l-7.216,41.398h-7.638l17.015-96.787c2.69-0.957,5.528-1.881,8.508-2.742c2.506-0.773,5.292-1.441,8.367-2.021
				c3.076-0.57,6.108-0.861,9.089-0.861c3.938,0,7.628,0.65,11.038,1.943c3.41,1.299,6.293,3.172,8.648,5.623
				c2.355,2.453,4.044,5.461,5.054,9.02c1.012,3.559,1.081,7.646,0.22,12.26c-0.579,3.27-1.547,6.469-2.892,9.59
				c-1.344,3.129-2.953,5.984-4.825,8.586c-1.881,2.594-4.025,4.879-6.425,6.846C244.452,403.255,241.903,404.765,239.214,405.82z
				 M233.289,355.767c-1.723,0-3.551,0.201-5.476,0.578c-1.924,0.387-3.699,0.82-5.335,1.303c-1.934,0.578-3.849,1.203-5.774,1.871
				l-7.216,40.535h16.014c6.926,0,12.868-2.064,17.815-6.205c4.948-4.131,8.096-10.002,9.448-17.596
				c0.669-3.752,0.669-6.926,0-9.518c-0.668-2.602-1.881-4.711-3.603-6.346c-1.731-1.637-3.973-2.813-6.715-3.535
				C239.706,356.126,236.656,355.767,233.289,355.767z"/>
			<path fill="#FFFFFF" d="M281.33,376.404l-8.367,47.883c-0.491,2.699-0.439,5.193,0.141,7.506
				c0.581,2.303,1.582,4.324,3.024,6.055c1.449,1.732,3.199,3.104,5.273,4.113c2.057,1.012,4.298,1.514,6.706,1.514
				c0.957,0,2.381-0.195,4.254-0.58c1.872-0.379,4.781-1.539,8.728-3.455l4.904-27.264h8.076l-5.773,32.449
				c-5.96,2.883-10.768,4.711-14.415,5.484c-3.665,0.764-6.169,1.15-7.505,1.15c-3.851,0-7.261-0.771-10.248-2.303
				c-2.971-1.537-5.406-3.629-7.278-6.273c-1.881-2.646-3.154-5.723-3.823-9.238c-0.677-3.508-0.677-7.234,0-11.18l8.077-45.861
				c2.021-9.045,5.89-16.137,11.611-21.279c5.721-5.141,12.472-7.717,20.268-7.717c1.344,0.098,2.926,0.334,4.765,0.721
				c1.817,0.379,3.453,0.861,4.895,1.441l8.507,3.463l-4.324,8.219l-9.369-3.895c-2.311-0.957-4.323-1.441-6.063-1.441
				c-2.496,0-4.974,0.555-7.427,1.662c-2.452,1.107-4.685,2.594-6.707,4.473c-2.021,1.871-3.727,4.061-5.115,6.557
				C282.737,371.113,281.805,373.707,281.33,376.404z"/>
			<path fill="#FFFFFF" d="M380.709,348.849l-1.441,8.217h-32.459l-6.627,37.793h25.385l-1.583,8.369h-25.4l-6.628,38.084h32.749
				l-1.442,8.367h-40.975l17.746-100.83H380.709z"/>
		</g>
	</g>
	<g>
		<path fill="#FFFFFF" d="M20.588,477.173c0.104-0.611,0.053-1.178-0.156-1.693c-0.201-0.514-0.523-0.959-0.942-1.342
			c-0.437-0.375-0.942-0.672-1.518-0.898c-0.593-0.227-1.187-0.332-1.806-0.332c-0.306,0-0.724,0.043-1.238,0.146
			c-0.516,0.107-1.039,0.246-1.57,0.412c-0.531,0.174-1.055,0.365-1.569,0.566c-0.515,0.209-0.942,0.438-1.282,0.672l-3.812,21.822
			H4.068l4.064-23.262l-0.924-1.135l2.162-1.795l1.291,1.586c0.994-0.479,1.955-0.871,2.904-1.178
			c0.942-0.313,1.842-0.461,2.696-0.461c1.517,0,2.877,0.322,4.098,0.977c1.222,0.654,1.964,1.666,2.233,3.035
			c0.619-0.828,1.282-1.492,1.988-2.006c0.697-0.516,1.413-0.916,2.129-1.213c0.723-0.287,1.43-0.496,2.11-0.619
			c0.689-0.113,1.343-0.174,1.954-0.174c1.238,0,2.259,0.219,3.069,0.662c0.802,0.453,1.413,1.021,1.823,1.727
			c0.41,0.707,0.672,1.475,0.775,2.32c0.105,0.838,0.088,1.666-0.051,2.494l-3.35,19.041h-2.67l3.289-18.684
			c0.104-0.654,0.131-1.264,0.078-1.848c-0.053-0.586-0.209-1.1-0.462-1.545c-0.253-0.443-0.646-0.811-1.16-1.08
			c-0.515-0.279-1.187-0.42-2.007-0.42c-2.162,0-3.838,0.611-5.023,1.832c-1.178,1.221-1.953,2.922-2.338,5.119l-2.877,16.625
			h-2.678L20.588,477.173z"/>
		<path fill="#FFFFFF" d="M54.402,494.005l0.828,0.926l-2.163,1.857l-1.186-1.396c-1.203,0.621-2.407,1.047-3.628,1.291
			c-1.221,0.236-2.172,0.357-2.861,0.357c-0.959,0-1.822-0.201-2.599-0.592c-0.769-0.395-1.405-0.926-1.901-1.598
			c-0.497-0.662-0.838-1.447-1.029-2.336c-0.192-0.898-0.192-1.842-0.026-2.836l0.515-2.877c0.175-0.994,0.506-1.938,1.012-2.809
			c0.488-0.873,1.107-1.641,1.85-2.285c0.732-0.654,1.553-1.17,2.468-1.545c0.907-0.383,1.841-0.566,2.8-0.566
			c0.244,0,0.609,0.018,1.082,0.053c0.488,0.033,1.012,0.096,1.57,0.201c0.574,0.104,1.115,0.252,1.647,0.436
			c0.532,0.191,0.985,0.436,1.369,0.75l0.306-1.754c0.131-0.785,0.131-1.57,0-2.338c-0.14-0.775-0.41-1.465-0.793-2.084
			c-0.402-0.619-0.891-1.115-1.467-1.49c-0.592-0.385-1.255-0.568-2.006-0.568c-0.279,0-0.784,0.088-1.525,0.252
			c-0.741,0.176-1.501,0.35-2.295,0.518c-0.924,0.209-1.918,0.443-2.982,0.723l-0.305-2.416c1.16-0.279,2.242-0.533,3.236-0.777
			c0.863-0.207,1.709-0.391,2.528-0.566c0.819-0.164,1.403-0.252,1.744-0.252c1.1,0,2.094,0.252,2.966,0.768
			c0.872,0.514,1.588,1.193,2.162,2.031c0.559,0.848,0.96,1.807,1.205,2.887c0.243,1.082,0.262,2.182,0.051,3.314L54.402,494.005z
			 M53.53,484.019c0-0.033-0.14-0.148-0.41-0.332c-0.278-0.191-0.653-0.393-1.134-0.619c-0.488-0.227-1.064-0.426-1.752-0.619
			c-0.689-0.184-1.422-0.277-2.207-0.277c-0.594,0-1.17,0.121-1.728,0.357c-0.566,0.244-1.082,0.566-1.552,0.977
			c-0.455,0.41-0.855,0.881-1.178,1.412c-0.323,0.531-0.541,1.107-0.637,1.727l-0.576,3.244c-0.209,1.205,0.035,2.234,0.699,3.113
			c0.662,0.873,1.586,1.309,2.754,1.309c0.508,0,1.117-0.096,1.824-0.277c0.707-0.193,1.387-0.402,2.031-0.646
			c0.751-0.27,1.553-0.584,2.373-0.924L53.53,484.019z"/>
		<path fill="#FFFFFF" d="M79.26,474.546c0.27,0.863,0.367,1.727,0.279,2.6c-0.078,0.881-0.219,1.779-0.385,2.705l-2.939,16.676
			h-2.72l3.192-18.273c0.305-1.744,0.086-3.088-0.672-4.012c-0.76-0.924-1.719-1.387-2.888-1.387c-0.645,0-1.499,0.096-2.546,0.307
			c-1.047,0.209-2.285,0.723-3.733,1.543l-3.803,21.822H60.42l4.074-23.209l-0.934-1.082l2.162-1.857l1.283,1.543
			c2.023-1.055,3.898-1.586,5.617-1.586c1.535,0,2.93,0.313,4.168,0.949C78.021,471.921,78.851,473.003,79.26,474.546z"/>
		<path fill="#FFFFFF" d="M85.688,489.837l2.939-16.52h-4.369l0.453-2.574h4.379l1.796-10.238h2.739l-1.806,10.238h4.735
			l-0.47,2.574h-4.728l-2.932,16.771c-0.139,0.725-0.156,1.316-0.051,1.779c0.104,0.463,0.296,0.838,0.593,1.133
			c0.278,0.289,0.637,0.498,1.047,0.621c0.417,0.113,0.854,0.174,1.343,0.174h1.133l-0.523,2.783H90.58
			c-0.854,0-1.631-0.131-2.311-0.385c-0.689-0.262-1.256-0.654-1.701-1.186c-0.444-0.531-0.758-1.23-0.924-2.084
			C85.471,492.07,85.487,491.041,85.688,489.837z"/>
		<path fill="#FFFFFF" d="M99.172,477.591c0.175-1.029,0.523-1.998,1.029-2.887c0.523-0.891,1.15-1.666,1.91-2.313
			c0.758-0.654,1.588-1.168,2.494-1.543c0.916-0.383,1.857-0.566,2.853-0.566h1.761c0.96,0,1.832,0.184,2.644,0.566
			c0.812,0.375,1.474,0.889,1.979,1.543c0.523,0.646,0.89,1.422,1.108,2.313c0.226,0.889,0.235,1.857,0.026,2.887l-0.263,1.691
			c-0.271,1.439-0.75,2.652-1.431,3.629c-0.697,0.977-1.535,1.779-2.529,2.398c-0.994,0.611-2.11,1.055-3.34,1.309
			c-1.238,0.262-2.521,0.383-3.864,0.383c-0.548,0-1.099-0.018-1.64-0.051c-0.559-0.027-1.098-0.08-1.656-0.148l-0.559,3.086
			c0,1.369,0.453,2.461,1.361,3.271c0.906,0.803,2.031,1.203,3.365,1.203c0.141,0,0.594-0.078,1.344-0.227
			c0.75-0.156,1.561-0.322,2.425-0.488c0.994-0.209,2.102-0.453,3.341-0.723l0.096,2.729c-1.3,0.271-2.478,0.498-3.541,0.662
			c-0.898,0.176-1.762,0.334-2.6,0.473c-0.846,0.131-1.352,0.199-1.518,0.199c-1.1,0-2.111-0.199-3.035-0.592
			c-0.934-0.393-1.709-0.951-2.319-1.676c-0.62-0.715-1.065-1.561-1.344-2.547c-0.271-0.977-0.306-2.049-0.104-3.209L99.172,477.591
			z M106.795,484.123h0.104c0.61,0,1.204-0.129,1.779-0.383c0.558-0.262,1.073-0.602,1.535-1.029
			c0.471-0.426,0.854-0.924,1.159-1.473c0.307-0.543,0.516-1.125,0.62-1.744l0.357-2.164c0.14-0.82,0.113-1.518-0.078-2.084
			c-0.192-0.566-0.507-1.021-0.978-1.361c-0.462-0.348-1.012-0.594-1.639-0.75c-0.646-0.156-1.318-0.227-2.041-0.227
			c-0.646,0-1.291,0.096-1.928,0.305s-1.213,0.498-1.719,0.873c-0.523,0.385-0.96,0.846-1.316,1.395
			c-0.357,0.551-0.611,1.16-0.742,1.85l-1.186,6.742L106.795,484.123z"/>
		<path fill="#FFFFFF" d="M136.231,474.546c0.271,0.863,0.366,1.727,0.278,2.6c-0.078,0.881-0.218,1.779-0.383,2.705l-2.939,16.676
			h-2.722l3.192-18.273c0.306-1.744,0.087-3.088-0.672-4.012s-1.718-1.387-2.887-1.387c-0.646,0-1.5,0.096-2.547,0.307
			c-1.047,0.209-2.285,0.723-3.732,1.543l-3.803,21.822h-2.625l4.072-23.209l-0.933-1.082l2.163-1.857l1.281,1.543
			c2.023-1.055,3.898-1.586,5.617-1.586c1.535,0,2.931,0.313,4.169,0.949C134.992,471.921,135.821,473.003,136.231,474.546z"/>
		<path fill="#FFFFFF" d="M142.555,477.591c0.174-1.029,0.523-1.998,1.029-2.887c0.523-0.891,1.151-1.666,1.91-2.313
			c0.759-0.654,1.587-1.168,2.494-1.543c0.916-0.383,1.857-0.566,2.852-0.566h1.762c0.96,0,1.832,0.184,2.644,0.566
			c0.811,0.375,1.474,0.889,1.979,1.543c0.523,0.646,0.891,1.422,1.107,2.313c0.227,0.889,0.236,1.857,0.026,2.887l-0.261,1.691
			c-0.271,1.439-0.75,2.652-1.432,3.629c-0.697,0.977-1.535,1.779-2.529,2.398c-0.994,0.611-2.11,1.055-3.34,1.309
			c-1.238,0.262-2.521,0.383-3.863,0.383c-0.551,0-1.1-0.018-1.641-0.051c-0.558-0.027-1.1-0.08-1.656-0.148l-0.559,3.086
			c0,1.369,0.453,2.461,1.36,3.271c0.907,0.803,2.032,1.203,3.366,1.203c0.14,0,0.594-0.078,1.344-0.227
			c0.75-0.156,1.561-0.322,2.425-0.488c0.994-0.209,2.102-0.453,3.34-0.723l0.097,2.729c-1.3,0.271-2.477,0.498-3.541,0.662
			c-0.898,0.176-1.763,0.334-2.6,0.473c-0.846,0.131-1.352,0.199-1.518,0.199c-1.099,0-2.111-0.199-3.035-0.592
			c-0.934-0.393-1.709-0.951-2.32-1.676c-0.619-0.715-1.064-1.561-1.343-2.547c-0.271-0.977-0.306-2.049-0.104-3.209
			L142.555,477.591z M150.178,484.123h0.104c0.61,0,1.204-0.129,1.778-0.383c0.559-0.262,1.073-0.602,1.535-1.029
			c0.472-0.426,0.855-0.924,1.16-1.473c0.306-0.543,0.516-1.125,0.619-1.744l0.358-2.164c0.14-0.82,0.113-1.518-0.079-2.084
			c-0.191-0.566-0.506-1.021-0.977-1.361c-0.463-0.348-1.012-0.594-1.64-0.75c-0.646-0.156-1.317-0.227-2.04-0.227
			c-0.646,0-1.292,0.096-1.928,0.305c-0.637,0.209-1.213,0.498-1.719,0.873c-0.523,0.385-0.959,0.846-1.317,1.395
			c-0.357,0.551-0.61,1.16-0.741,1.85l-1.186,6.742L150.178,484.123z"/>
		<path fill="#FFFFFF" d="M163.871,489.837l2.93-16.52h-4.378l0.472-2.574h4.369l1.805-10.238h2.722l-1.796,10.238h4.727
			l-0.453,2.574h-4.745l-2.931,16.771c-0.14,0.725-0.156,1.316-0.053,1.779c0.105,0.463,0.306,0.838,0.594,1.133
			c0.297,0.289,0.646,0.498,1.064,0.621c0.4,0.113,0.854,0.174,1.325,0.174h1.134l-0.506,2.783h-1.396
			c-0.854,0-1.622-0.131-2.319-0.385c-0.681-0.262-1.248-0.654-1.693-1.186c-0.444-0.531-0.75-1.23-0.924-2.084
			C163.645,492.07,163.662,491.041,163.871,489.837z"/>
		<path fill="#FFFFFF" d="M177.354,477.591c0.175-1.029,0.507-1.998,1.029-2.887c0.506-0.891,1.151-1.666,1.901-2.313
			c0.75-0.654,1.588-1.168,2.494-1.543c0.907-0.383,1.867-0.566,2.861-0.566h1.744c0.96,0,1.85,0.184,2.651,0.566
			c0.802,0.375,1.466,0.889,1.989,1.543c0.505,0.646,0.871,1.422,1.099,2.313c0.227,0.889,0.235,1.857,0.026,2.887l-0.254,1.691
			c-0.278,1.439-0.758,2.652-1.447,3.629c-0.681,0.977-1.518,1.779-2.512,2.398c-1.003,0.611-2.111,1.055-3.35,1.309
			c-1.238,0.262-2.529,0.383-3.863,0.383c-0.549,0-1.09-0.018-1.648-0.051c-0.541-0.027-1.1-0.08-1.64-0.148l-0.575,3.086
			c0,1.369,0.453,2.461,1.369,3.271c0.906,0.803,2.031,1.203,3.375,1.203c0.131,0,0.576-0.078,1.334-0.227
			c0.76-0.156,1.562-0.322,2.416-0.488c0.994-0.209,2.111-0.453,3.35-0.723l0.104,2.729c-1.309,0.271-2.494,0.498-3.559,0.662
			c-0.89,0.176-1.753,0.334-2.599,0.473c-0.838,0.131-1.344,0.199-1.518,0.199c-1.1,0-2.111-0.199-3.035-0.592
			c-0.926-0.393-1.693-0.951-2.32-1.676c-0.611-0.715-1.056-1.561-1.326-2.547c-0.279-0.977-0.314-2.049-0.104-3.209
			L177.354,477.591z M184.969,484.123h0.105c0.619,0,1.212-0.129,1.77-0.383c0.567-0.262,1.082-0.602,1.553-1.029
			c0.453-0.426,0.838-0.924,1.151-1.473c0.314-0.543,0.515-1.125,0.62-1.744l0.357-2.164c0.139-0.82,0.113-1.518-0.07-2.084
			c-0.191-0.566-0.523-1.021-0.977-1.361c-0.471-0.348-1.021-0.594-1.658-0.75c-0.627-0.156-1.308-0.227-2.022-0.227
			c-0.663,0-1.3,0.096-1.937,0.305c-0.628,0.209-1.203,0.498-1.727,0.873c-0.506,0.385-0.942,0.846-1.309,1.395
			c-0.366,0.551-0.61,1.16-0.75,1.85l-1.187,6.742L184.969,484.123z"/>
		<path fill="#FFFFFF" d="M209.87,488.912c-0.166,0.82-0.157,1.57,0.034,2.232c0.184,0.672,0.489,1.248,0.925,1.729
			c0.428,0.479,0.951,0.844,1.57,1.107c0.61,0.252,1.3,0.383,2.059,0.383c0.34,0,0.776-0.043,1.308-0.131
			c0.532-0.076,1.056-0.174,1.57-0.279c0.619-0.139,1.238-0.287,1.849-0.461l0.419,2.363c-0.724,0.244-1.413,0.436-2.059,0.566
			c-0.584,0.141-1.203,0.262-1.849,0.367c-0.663,0.096-1.222,0.148-1.709,0.148c-1.126,0-2.146-0.193-3.054-0.594
			c-0.916-0.393-1.674-0.951-2.268-1.666c-0.602-0.725-1.028-1.57-1.291-2.555c-0.253-0.979-0.279-2.051-0.069-3.211l1.849-10.762
			c0.21-1.16,0.61-2.232,1.204-3.211c0.61-0.977,1.334-1.813,2.198-2.502c0.854-0.682,1.805-1.221,2.852-1.613
			c1.047-0.402,2.137-0.594,3.271-0.594c0.541,0,1.116,0.07,1.692,0.201c0.584,0.139,1.116,0.297,1.596,0.463
			c0.585,0.174,1.134,0.383,1.648,0.617l-0.977,2.215c-0.479-0.174-0.977-0.322-1.492-0.461c-0.444-0.139-0.933-0.262-1.438-0.357
			c-0.523-0.105-1.011-0.156-1.5-0.156c-0.75,0-1.483,0.129-2.181,0.383c-0.706,0.262-1.343,0.629-1.936,1.107
			c-0.576,0.48-1.082,1.047-1.519,1.701c-0.427,0.646-0.715,1.387-0.846,2.207L209.87,488.912z"/>
		<path fill="#FFFFFF" d="M240.448,489.48c-0.278,1.578-0.793,2.842-1.552,3.801c-0.75,0.961-1.588,1.711-2.512,2.242
			c-0.925,0.531-1.858,0.881-2.783,1.057c-0.933,0.174-1.718,0.252-2.363,0.252c-0.662,0-1.412-0.078-2.268-0.252
			c-0.854-0.176-1.657-0.525-2.39-1.057c-0.741-0.531-1.309-1.281-1.709-2.242c-0.384-0.959-0.454-2.223-0.175-3.801l2.059-11.889
			c0.278-1.578,0.785-2.854,1.544-3.811c0.758-0.959,1.587-1.701,2.503-2.217c0.906-0.514,1.813-0.854,2.747-1.029
			c0.925-0.164,1.718-0.252,2.363-0.252c0.655,0,1.413,0.088,2.294,0.252c0.881,0.176,1.666,0.516,2.399,1.029
			c0.715,0.516,1.281,1.258,1.691,2.217c0.419,0.957,0.479,2.232,0.209,3.811L240.448,489.48z M238.128,489.113l1.954-11.164
			c0.21-1.135,0.166-2.031-0.121-2.703c-0.298-0.672-0.698-1.188-1.213-1.545s-1.072-0.602-1.675-0.723
			c-0.602-0.113-1.125-0.176-1.569-0.176c-0.445,0-1.003,0.063-1.666,0.176c-0.681,0.121-1.326,0.365-1.963,0.723
			s-1.212,0.873-1.753,1.545c-0.523,0.672-0.89,1.568-1.099,2.703l-1.954,11.164c-0.21,1.135-0.175,2.031,0.122,2.703
			s0.697,1.195,1.213,1.57c0.514,0.375,1.081,0.629,1.7,0.75c0.61,0.113,1.151,0.174,1.588,0.174c0.453,0,0.994-0.061,1.656-0.174
			c0.646-0.121,1.3-0.375,1.954-0.75c0.646-0.375,1.23-0.898,1.744-1.57C237.563,491.144,237.92,490.248,238.128,489.113z"/>
		<path fill="#FFFFFF" d="M264.381,474.546c0.263,0.863,0.367,1.727,0.279,2.6c-0.086,0.881-0.218,1.779-0.384,2.705l-2.938,16.676
			h-2.73l3.192-18.273c0.314-1.744,0.087-3.088-0.663-4.012c-0.759-0.924-1.718-1.387-2.887-1.387c-0.654,0-1.5,0.096-2.547,0.307
			c-1.046,0.209-2.293,0.723-3.733,1.543l-3.811,21.822h-2.617l4.064-23.209l-0.925-1.082l2.164-1.857l1.282,1.543
			c2.022-1.055,3.898-1.586,5.607-1.586c1.544,0,2.931,0.313,4.169,0.949C263.144,471.921,263.963,473.003,264.381,474.546z"/>
		<path fill="#FFFFFF" d="M270.705,477.591c0.174-1.029,0.515-1.998,1.028-2.887c0.516-0.891,1.152-1.666,1.911-2.313
			c0.75-0.654,1.587-1.168,2.494-1.543c0.906-0.383,1.857-0.566,2.853-0.566h1.753c0.959,0,1.841,0.184,2.65,0.566
			c0.804,0.375,1.466,0.889,1.98,1.543c0.515,0.646,0.881,1.422,1.107,2.313c0.227,0.889,0.227,1.857,0.018,2.887l-0.253,1.691
			c-0.27,1.439-0.759,2.652-1.438,3.629c-0.688,0.977-1.527,1.779-2.521,2.398c-1.003,0.611-2.11,1.055-3.34,1.309
			c-1.238,0.262-2.529,0.383-3.873,0.383c-0.54,0-1.09-0.018-1.64-0.051c-0.549-0.027-1.099-0.08-1.648-0.148l-0.566,3.086
			c0,1.369,0.454,2.461,1.36,3.271c0.907,0.803,2.041,1.203,3.376,1.203c0.13,0,0.584-0.078,1.334-0.227
			c0.759-0.156,1.569-0.322,2.425-0.488c0.994-0.209,2.11-0.453,3.349-0.723l0.096,2.729c-1.3,0.271-2.485,0.498-3.55,0.662
			c-0.89,0.176-1.761,0.334-2.599,0.473c-0.837,0.131-1.343,0.199-1.518,0.199c-1.099,0-2.11-0.199-3.035-0.592
			c-0.924-0.393-1.701-0.951-2.319-1.676c-0.61-0.715-1.064-1.561-1.335-2.547c-0.271-0.977-0.305-2.049-0.105-3.209
			L270.705,477.591z M278.319,484.123h0.104c0.619,0,1.212-0.129,1.779-0.383c0.559-0.262,1.081-0.602,1.544-1.029
			c0.462-0.426,0.847-0.924,1.16-1.473c0.305-0.543,0.506-1.125,0.61-1.744l0.366-2.164c0.14-0.82,0.104-1.518-0.078-2.084
			c-0.192-0.566-0.516-1.021-0.978-1.361c-0.462-0.348-1.02-0.594-1.648-0.75c-0.637-0.156-1.308-0.227-2.032-0.227
			c-0.654,0-1.299,0.096-1.928,0.305c-0.637,0.209-1.212,0.498-1.727,0.873c-0.515,0.385-0.951,0.846-1.309,1.395
			c-0.366,0.551-0.61,1.16-0.75,1.85l-1.186,6.742L278.319,484.123z"/>
		<path fill="#FFFFFF" d="M292.327,488.912c-0.175,0.82-0.166,1.57,0.017,2.232c0.192,0.672,0.506,1.248,0.925,1.729
			c0.436,0.479,0.959,0.844,1.57,1.107c0.628,0.252,1.308,0.383,2.058,0.383c0.35,0,0.785-0.043,1.317-0.131
			c0.532-0.076,1.056-0.174,1.57-0.279c0.618-0.139,1.237-0.287,1.857-0.461l0.409,2.363c-0.724,0.244-1.403,0.436-2.058,0.566
			c-0.585,0.141-1.204,0.262-1.858,0.367c-0.646,0.096-1.221,0.148-1.692,0.148c-1.133,0-2.162-0.193-3.069-0.594
			c-0.907-0.393-1.656-0.951-2.259-1.666c-0.602-0.725-1.029-1.57-1.282-2.555c-0.262-0.979-0.287-2.051-0.088-3.211l1.858-10.762
			c0.2-1.16,0.602-2.232,1.212-3.211c0.594-0.977,1.326-1.813,2.181-2.502c0.854-0.682,1.814-1.221,2.861-1.613
			c1.046-0.402,2.137-0.594,3.262-0.594c0.559,0,1.116,0.07,1.709,0.201c0.575,0.139,1.107,0.297,1.588,0.463
			c0.585,0.174,1.134,0.383,1.648,0.617l-0.978,2.215c-0.479-0.174-0.977-0.322-1.49-0.461c-0.454-0.139-0.925-0.262-1.448-0.357
			c-0.506-0.105-1.012-0.156-1.483-0.156c-0.759,0-1.482,0.129-2.197,0.383c-0.698,0.262-1.344,0.629-1.919,1.107
			c-0.593,0.48-1.1,1.047-1.519,1.701c-0.436,0.646-0.715,1.387-0.854,2.207L292.327,488.912z"/>
		<path fill="#FFFFFF" d="M309.822,489.837l2.931-16.52h-4.378l0.471-2.574h4.369l1.806-10.238h2.721l-1.796,10.238h4.727
			l-0.452,2.574h-4.745l-2.931,16.771c-0.14,0.725-0.157,1.316-0.053,1.779s0.306,0.838,0.594,1.133
			c0.296,0.289,0.646,0.498,1.063,0.621c0.401,0.113,0.854,0.174,1.326,0.174h1.134l-0.507,2.783h-1.395
			c-0.854,0-1.622-0.131-2.32-0.385c-0.681-0.262-1.247-0.654-1.691-1.186c-0.446-0.531-0.75-1.23-0.925-2.084
			C309.596,492.07,309.613,491.041,309.822,489.837z"/>
		<path fill="#FFFFFF" d="M335.238,494.005l0.829,0.926l-2.164,1.857l-1.178-1.396c-1.203,0.621-2.415,1.047-3.628,1.291
			c-1.221,0.236-2.181,0.357-2.86,0.357c-0.96,0-1.832-0.201-2.6-0.592c-0.768-0.395-1.412-0.926-1.901-1.598
			c-0.506-0.662-0.846-1.447-1.029-2.336c-0.191-0.898-0.2-1.842-0.035-2.836l0.523-2.877c0.176-0.994,0.507-1.938,1.003-2.809
			c0.498-0.873,1.108-1.641,1.85-2.285c0.742-0.654,1.562-1.17,2.468-1.545c0.908-0.383,1.85-0.566,2.81-0.566
			c0.243,0,0.602,0.018,1.081,0.053c0.48,0.033,1.003,0.096,1.57,0.201c0.566,0.104,1.116,0.252,1.64,0.436
			c0.54,0.191,0.994,0.436,1.369,0.75l0.306-1.754c0.139-0.785,0.139-1.57,0-2.338c-0.141-0.775-0.402-1.465-0.794-2.084
			c-0.394-0.619-0.881-1.115-1.466-1.49c-0.585-0.385-1.256-0.568-2.006-0.568c-0.278,0-0.785,0.088-1.526,0.252
			c-0.732,0.176-1.499,0.35-2.284,0.518c-0.926,0.209-1.92,0.443-2.983,0.723l-0.314-2.416c1.169-0.279,2.25-0.533,3.244-0.777
			c0.855-0.207,1.701-0.391,2.529-0.566c0.82-0.164,1.396-0.252,1.745-0.252c1.1,0,2.084,0.252,2.965,0.768
			c0.873,0.514,1.588,1.193,2.155,2.031c0.565,0.848,0.968,1.807,1.212,2.887c0.235,1.082,0.262,2.182,0.053,3.314L335.238,494.005z
			 M334.365,484.019c0-0.033-0.14-0.148-0.409-0.332c-0.271-0.191-0.654-0.393-1.125-0.619c-0.489-0.227-1.064-0.426-1.762-0.619
			c-0.681-0.184-1.413-0.277-2.207-0.277c-0.585,0-1.161,0.121-1.719,0.357c-0.574,0.244-1.081,0.566-1.553,0.977
			c-0.461,0.41-0.854,0.881-1.186,1.412c-0.322,0.531-0.54,1.107-0.637,1.727l-0.567,3.244c-0.209,1.205,0.027,2.234,0.699,3.113
			c0.662,0.873,1.586,1.309,2.747,1.309c0.514,0,1.125-0.096,1.822-0.277c0.716-0.193,1.388-0.402,2.041-0.646
			c0.75-0.27,1.544-0.584,2.364-0.924L334.365,484.019z"/>
		<path fill="#FFFFFF" d="M357.889,471.773l2.006-11.223h2.573l-5.914,33.508l0.925,1.135l-2.163,1.795l-1.291-1.543
			c-1.203,0.619-2.397,1.029-3.593,1.238c-1.203,0.201-2.163,0.305-2.887,0.305c-0.96,0-1.823-0.189-2.574-0.566
			c-0.749-0.375-1.395-0.889-1.9-1.543c-0.523-0.654-0.872-1.422-1.064-2.313c-0.183-0.898-0.191-1.84-0.017-2.834l2.11-12.141
			c0.174-1.002,0.505-1.936,1.029-2.809c0.506-0.871,1.134-1.648,1.875-2.32c0.741-0.662,1.553-1.186,2.451-1.568
			c0.889-0.377,1.813-0.559,2.772-0.559c0.585,0,1.361,0.051,2.338,0.174C355.542,470.63,356.658,471.05,357.889,471.773z
			 M354.183,492.515l3.14-17.758c-1.029-0.785-2.067-1.291-3.115-1.492c-1.046-0.211-1.857-0.314-2.44-0.314
			c-0.585,0-1.161,0.123-1.728,0.367c-0.567,0.234-1.073,0.557-1.544,0.949c-0.463,0.393-0.846,0.865-1.15,1.414
			c-0.315,0.549-0.524,1.133-0.629,1.754l-2.206,12.506c-0.201,1.195,0.025,2.232,0.688,3.113c0.672,0.873,1.588,1.309,2.756,1.309
			c0.314,0,0.785-0.043,1.413-0.131c0.638-0.076,1.292-0.199,1.954-0.357c0.681-0.158,1.273-0.34,1.805-0.566
			C353.658,493.089,354.008,492.82,354.183,492.515z"/>
		<path fill="#FFFFFF" d="M379.396,489.48c-0.27,1.578-0.793,2.842-1.543,3.801c-0.751,0.961-1.596,1.711-2.521,2.242
			s-1.858,0.881-2.782,1.057c-0.925,0.174-1.71,0.252-2.364,0.252s-1.403-0.078-2.259-0.252c-0.863-0.176-1.657-0.525-2.398-1.057
			s-1.3-1.281-1.701-2.242c-0.393-0.959-0.453-2.223-0.175-3.801l2.059-11.889c0.271-1.578,0.785-2.854,1.535-3.811
			c0.759-0.959,1.587-1.701,2.504-2.217c0.907-0.514,1.822-0.854,2.747-1.029c0.925-0.164,1.718-0.252,2.373-0.252
			c0.646,0,1.412,0.088,2.285,0.252c0.88,0.176,1.675,0.516,2.397,1.029c0.725,0.516,1.283,1.258,1.701,2.217
			c0.409,0.957,0.471,2.232,0.2,3.811L379.396,489.48z M377.085,489.113l1.954-11.164c0.209-1.135,0.157-2.031-0.131-2.703
			c-0.287-0.672-0.688-1.188-1.212-1.545c-0.505-0.357-1.063-0.602-1.675-0.723c-0.594-0.113-1.116-0.176-1.57-0.176
			c-0.436,0-0.994,0.063-1.666,0.176c-0.672,0.121-1.317,0.365-1.962,0.723c-0.627,0.357-1.213,0.873-1.744,1.545
			c-0.532,0.672-0.898,1.568-1.108,2.703l-1.953,11.164c-0.201,1.135-0.166,2.031,0.13,2.703c0.289,0.672,0.699,1.195,1.205,1.57
			c0.522,0.375,1.081,0.629,1.7,0.75c0.62,0.113,1.151,0.174,1.596,0.174c0.445,0,0.995-0.061,1.648-0.174
			c0.655-0.121,1.3-0.375,1.954-0.75s1.23-0.898,1.753-1.57C376.511,491.144,376.876,490.248,377.085,489.113z"/>
	</g>
</g>
</svg>
